<svg width="128" height="68" viewBox="0 0 128 68" fill="none" xmlns="http://www.w3.org/2000/svg">
<g clip-path="url(#clip0_1_11394)">
<path d="M48.2526 59.1599V52.8713H50.7771C51.0844 52.8643 51.3886 52.9352 51.6611 53.0774C51.9056 53.2071 52.1077 53.4045 52.243 53.6459C52.3809 53.8966 52.451 54.1788 52.4464 54.4648C52.4467 54.6637 52.4057 54.8604 52.3258 55.0424C52.2479 55.2237 52.1363 55.3886 51.9969 55.5282C51.864 55.6628 51.7048 55.7686 51.5293 55.8389C51.7605 55.8847 51.9771 55.9862 52.1603 56.1347C52.3524 56.2886 52.5076 56.4836 52.6146 56.7054C52.7268 56.9359 52.7841 57.1894 52.7822 57.4458C52.7878 57.7582 52.7083 58.0662 52.5521 58.3368C52.4019 58.5929 52.1842 58.8027 51.9227 58.9432C51.6521 59.0891 51.3488 59.1637 51.0413 59.1599H48.2526ZM50.7589 55.6868C50.9736 55.6877 51.1846 55.6313 51.3702 55.5234C51.5557 55.4182 51.7114 55.2673 51.8223 55.0852C51.9333 54.904 51.9914 54.6954 51.99 54.483C51.9925 54.2714 51.9409 54.0626 51.84 53.8765C51.741 53.6941 51.5931 53.5428 51.4129 53.4399C51.2147 53.3295 50.9905 53.2742 50.7637 53.2797H48.709V55.6879L50.7589 55.6868ZM51.0141 58.7526C51.2472 58.7558 51.4769 58.6964 51.6793 58.5807C51.8763 58.4665 52.0381 58.3003 52.1469 58.1003C52.2616 57.8897 52.3201 57.653 52.3167 57.4132C52.319 57.1772 52.2587 56.9447 52.1421 56.7395C52.0255 56.535 51.8543 56.3668 51.6478 56.2537C51.4234 56.1319 51.1712 56.0703 50.9159 56.0749H48.709V58.751L51.0141 58.7526Z" fill="white"/>
<path d="M51.0414 59.2133H48.1992V52.818H50.7771C51.0927 52.812 51.4048 52.8854 51.6847 53.0315C51.9374 53.1658 52.1466 53.3695 52.2873 53.6187C52.4295 53.8774 52.502 54.1686 52.4977 54.4638C52.4979 54.6699 52.4554 54.8739 52.3728 55.0627C52.2919 55.25 52.1763 55.4202 52.0322 55.5646C51.9303 55.6673 51.8137 55.7544 51.6862 55.8229C51.87 55.8791 52.0414 55.9697 52.1913 56.0899C52.3893 56.2483 52.5496 56.4489 52.6605 56.6771C52.7761 56.9151 52.8353 57.1765 52.8335 57.441C52.8388 57.7629 52.7567 58.0803 52.5959 58.3592C52.4404 58.6232 52.2157 58.8397 51.9462 58.9854C51.6687 59.1367 51.3574 59.2151 51.0414 59.2133ZM48.306 59.1066H51.0414C51.3393 59.1098 51.6332 59.0375 51.8955 58.8962C52.1483 58.7596 52.3589 58.5566 52.5046 58.309C52.6556 58.0466 52.7326 57.748 52.7272 57.4453C52.7298 57.1971 52.675 56.9518 52.5671 56.7283C52.4636 56.5136 52.3133 56.3248 52.1272 56.1758C51.9508 56.0329 51.7423 55.935 51.5197 55.8907L51.3403 55.856L51.5101 55.7888C51.6789 55.7211 51.8319 55.6193 51.9596 55.4898C52.0949 55.3549 52.2036 55.1957 52.2799 55.0206C52.3563 54.8451 52.3957 54.6557 52.3957 54.4643C52.3998 54.1875 52.3322 53.9144 52.1993 53.6716C52.0682 53.4393 51.8736 53.2492 51.6382 53.1239C51.3734 52.9863 51.0782 52.9176 50.7798 52.9242H48.3087L48.306 59.1066ZM51.0141 58.8066H48.6557V56.0231H50.9149C51.1792 56.0186 51.4401 56.0826 51.6724 56.2089C51.8877 56.3264 52.066 56.5014 52.1875 56.7144C52.3086 56.9279 52.3712 57.1695 52.369 57.4148C52.3723 57.6636 52.3115 57.9091 52.1923 58.1275C52.0787 58.3354 51.9101 58.5081 51.7049 58.6267C51.4948 58.747 51.2563 58.8091 51.0141 58.8066ZM48.7624 58.6998H51.0141C51.2386 58.7029 51.4599 58.6457 51.6548 58.5343C51.8434 58.4256 51.9984 58.2669 52.1026 58.0757C52.2128 57.8731 52.2691 57.6455 52.266 57.4148C52.2681 57.188 52.2103 56.9646 52.0984 56.7673C51.9865 56.5712 51.8224 56.4101 51.6243 56.3018C51.4078 56.1847 51.1647 56.1255 50.9186 56.1299H48.7651L48.7624 58.6998ZM50.759 55.7402H48.6557V53.2253H50.7638C51.0001 53.2204 51.2334 53.2786 51.4396 53.394C51.6281 53.502 51.783 53.6602 51.887 53.8509C51.9918 54.045 52.0456 54.2625 52.0434 54.483C52.0447 54.7052 51.9839 54.9234 51.8678 55.1129C51.7521 55.3027 51.5901 55.46 51.3969 55.5699C51.2031 55.6821 50.9829 55.7409 50.759 55.7402ZM48.7624 55.6334H50.759C50.9651 55.6346 51.1678 55.5808 51.3462 55.4775C51.5241 55.3764 51.6733 55.2316 51.7797 55.0569C51.8853 54.8842 51.9407 54.6854 51.9398 54.483C51.9419 54.2804 51.8927 54.0806 51.7968 53.9022C51.7022 53.7283 51.5609 53.5843 51.3889 53.4863C51.1991 53.3803 50.9843 53.327 50.767 53.332H48.7656L48.7624 55.6334Z" fill="white"/>
<path d="M57.3273 54.7782C57.65 54.9866 57.9064 55.283 58.0661 55.6324C58.2427 56.0191 58.3306 56.4404 58.3234 56.8655C58.3244 56.9224 58.3214 56.9793 58.3144 57.0358H54.5012C54.5198 57.3657 54.6188 57.686 54.7894 57.969C54.9513 58.2386 55.1806 58.4616 55.4546 58.616C55.7303 58.7713 56.0419 58.8516 56.3584 58.8487C56.6329 58.851 56.9052 58.7984 57.1591 58.6939C57.4028 58.5927 57.6241 58.4445 57.8104 58.2578L58.0565 58.5781C57.8354 58.7969 57.574 58.9707 57.2867 59.09C56.9842 59.2137 56.66 59.2754 56.3333 59.2715C55.9267 59.2748 55.5273 59.1638 55.1807 58.9512C54.8342 58.7405 54.5506 58.4405 54.3597 58.0827C54.1582 57.7104 54.055 57.293 54.0597 56.8698C54.0542 56.4487 54.1486 56.0323 54.3351 55.6548C54.5073 55.3017 54.7716 55.0016 55.1001 54.7862C55.4267 54.573 55.8093 54.4615 56.1993 54.4659C56.5977 54.4574 56.9899 54.566 57.3273 54.7782ZM55.3873 55.1119C55.1371 55.2619 54.9297 55.4739 54.7852 55.7274C54.6277 56.0016 54.5322 56.307 54.5054 56.6221H57.8803C57.8582 56.3051 57.7706 55.9961 57.623 55.7146C57.4905 55.4636 57.2924 55.2532 57.0497 55.106C56.7971 54.9576 56.5082 54.8824 56.2153 54.8887C55.924 54.8855 55.6375 54.9627 55.3873 55.1119Z" fill="white"/>
<path d="M56.336 59.3254C55.9199 59.3289 55.5111 59.2162 55.1557 58.9998C54.8014 58.7838 54.5113 58.4772 54.3154 58.1115C54.1103 57.7311 54.0049 57.305 54.009 56.873C54.004 56.4436 54.1002 56.0192 54.2898 55.6339C54.4671 55.2728 54.7379 54.9657 55.074 54.7445C55.4094 54.5262 55.8018 54.412 56.202 54.4162C56.6093 54.4077 57.0103 54.5179 57.3561 54.7333C57.6864 54.9472 57.9491 55.2504 58.1137 55.6078C58.2935 56.0017 58.3832 56.4309 58.3763 56.8639C58.3773 56.9235 58.3741 56.983 58.3667 57.0422L58.3598 57.0876H54.5583C54.5834 57.3898 54.678 57.6821 54.8348 57.9417C54.9922 58.2033 55.2145 58.4197 55.4802 58.57C55.7481 58.7205 56.0506 58.7984 56.3579 58.7958C56.6262 58.7983 56.8922 58.7471 57.1405 58.6453C57.3779 58.5457 57.5935 58.4006 57.7752 58.2182L57.8179 58.175L58.1297 58.5834L58.096 58.6165C57.8699 58.8398 57.6029 59.0175 57.3097 59.1402C57.0006 59.2658 56.6696 59.3287 56.336 59.3254ZM56.202 54.5209C55.8232 54.5171 55.4517 54.6254 55.1343 54.8321C54.8139 55.0426 54.5558 55.3351 54.3869 55.6793C54.2058 56.0501 54.1144 56.4582 54.12 56.8708C54.1161 57.2851 54.2169 57.6937 54.4131 58.0586C54.5999 58.4073 54.8763 58.7 55.2138 58.9063C55.5525 59.1126 55.9421 59.22 56.3386 59.2165C56.6584 59.2199 56.9756 59.1597 57.2718 59.0393C57.5379 58.9282 57.7816 58.7695 57.9909 58.5711L57.8099 58.3341C57.6279 58.5058 57.4163 58.6431 57.1853 58.7392C56.924 58.8472 56.6438 58.9017 56.3611 58.8994C56.0353 58.902 55.7145 58.8194 55.4306 58.6597C55.149 58.5005 54.9134 58.2712 54.7467 57.994C54.5719 57.7037 54.4702 57.3752 54.4505 57.0368L54.4467 56.9797H58.269C58.269 56.9477 58.2727 56.9087 58.2727 56.8628C58.2795 56.4457 58.1933 56.0322 58.0202 55.6526C57.8643 55.3131 57.6149 55.0249 57.3012 54.8219C56.971 54.6172 56.5882 54.5133 56.1998 54.523L56.202 54.5209ZM57.9386 56.6733H54.4467L54.4521 56.6151C54.4801 56.2922 54.5781 55.9792 54.7393 55.698C54.8885 55.4369 55.1023 55.2185 55.3601 55.0638C55.6185 54.9108 55.914 54.8316 56.2143 54.8348C56.5168 54.829 56.8152 54.9067 57.0764 55.0595C57.327 55.2119 57.5318 55.4291 57.669 55.6884C57.8193 55.9761 57.9089 56.2918 57.9321 56.6156L57.9386 56.6733ZM54.5652 56.5665H57.8216C57.7942 56.2774 57.7108 55.9964 57.5761 55.7391C57.4476 55.4972 57.2564 55.2943 57.0225 55.1519C56.7778 55.0093 56.4985 54.9369 56.2153 54.9426C55.9339 54.9392 55.657 55.0131 55.4146 55.1561C55.1724 55.3019 54.9716 55.5072 54.8311 55.7524C54.6872 56.0033 54.5966 56.2812 54.5652 56.5687V56.5665Z" fill="white"/>
<path d="M63.7125 54.5637H64.1599V59.16H63.7211V58.1889L63.7259 58.1265C63.5466 58.4627 63.2846 58.7476 62.9646 58.9545C62.6416 59.1612 62.2649 59.2685 61.8815 59.263C61.4852 59.266 61.0962 59.1558 60.7604 58.9454C60.4201 58.7331 60.1421 58.4343 59.9548 58.0795C59.7561 57.7072 59.6544 57.2908 59.6591 56.8688C59.6545 56.4461 59.7562 56.029 59.9548 55.6559C60.1418 55.2996 60.4197 54.9992 60.7604 54.7852C61.0957 54.5732 61.4848 54.462 61.8815 54.4649C62.2605 54.4599 62.6328 54.5648 62.9534 54.767C63.2725 54.9695 63.5339 55.2508 63.7125 55.5838V54.5637ZM62.8349 58.576C63.1148 58.4052 63.343 58.1617 63.4953 57.8713C63.6575 57.5624 63.7399 57.2177 63.7349 56.8688C63.7393 56.5203 63.6562 56.1763 63.4931 55.8684C63.3402 55.5772 63.1122 55.3322 62.8328 55.1589C62.554 54.986 62.2319 54.896 61.9039 54.8994C61.5796 54.8958 61.2611 54.9859 60.9867 55.1589C60.7108 55.3331 60.4866 55.5781 60.3376 55.8684C60.1769 56.1771 60.0953 56.5208 60.1 56.8688C60.0949 57.2175 60.1765 57.562 60.3376 57.8713C60.4868 58.1602 60.711 58.4037 60.9867 58.576C61.2615 58.748 61.5798 58.8374 61.9039 58.8338C62.2323 58.8372 62.555 58.7478 62.8349 58.576Z" fill="white"/>
<path d="M61.8814 59.3164C61.4745 59.3193 61.0751 59.2064 60.7299 58.9908C60.3818 58.7733 60.0974 58.4676 59.9057 58.1046C59.7032 57.7244 59.5993 57.2995 59.6035 56.8688C59.5996 56.4372 59.7034 56.0115 59.9057 55.6303C60.0974 55.2662 60.3817 54.959 60.7299 54.7398C61.0746 54.5228 61.4741 54.4089 61.8814 54.4115C62.2706 54.407 62.6528 54.5149 62.9822 54.7222C63.2531 54.8942 63.4839 55.1223 63.6591 55.3911V54.5103H64.2132V59.2134H63.6676V58.3272C63.493 58.5963 63.2634 58.8254 62.9939 58.9993C62.6619 59.2112 62.2752 59.3215 61.8814 59.3164ZM61.8814 54.5183C61.4941 54.5157 61.1142 54.6241 60.7865 54.8306C60.4537 55.0396 60.1822 55.333 59.9996 55.681C59.8058 56.0466 59.7063 56.4549 59.7103 56.8688C59.7059 57.2818 59.8054 57.6893 59.9996 58.0539C60.1827 58.4004 60.4542 58.6923 60.7865 58.9C61.1147 59.105 61.4945 59.2124 61.8814 59.2096C62.2546 59.2147 62.6211 59.1104 62.9357 58.9096C63.248 58.7073 63.5036 58.4291 63.6788 58.1009L63.7968 57.8836L63.7744 58.1927V59.1066H64.1064V54.617H63.7659V55.7915L63.6655 55.6084C63.4913 55.2835 63.2368 55.0087 62.9261 54.8103C62.6133 54.6143 62.2505 54.5129 61.8814 54.5183ZM61.9044 58.8872C61.57 58.8902 61.2418 58.7976 60.9584 58.6203C60.6749 58.4426 60.4442 58.1923 60.29 57.8953C60.1257 57.578 60.0421 57.225 60.0466 56.8677C60.0426 56.5111 60.1262 56.1589 60.29 55.8422C60.4438 55.5439 60.6744 55.292 60.9579 55.1124C61.2412 54.9345 61.5698 54.8419 61.9044 54.8455C62.2421 54.8423 62.5738 54.9349 62.861 55.1124C63.1479 55.2911 63.3822 55.5428 63.54 55.8417C63.7069 56.1577 63.7923 56.5104 63.7883 56.8677C63.793 57.2254 63.7084 57.5786 63.5422 57.8953C63.3852 58.1938 63.1506 58.4445 62.8631 58.6208C62.5746 58.7972 62.2425 58.8895 61.9044 58.8872ZM61.9044 54.9528C61.59 54.9496 61.2813 55.0367 61.015 55.2037C60.7476 55.3736 60.53 55.6115 60.3845 55.8929C60.2287 56.1944 60.1493 56.5295 60.1534 56.8688C60.1488 57.2086 60.2282 57.5444 60.3845 57.8462C60.53 58.1266 60.7476 58.363 61.015 58.5311C61.2818 58.697 61.5902 58.7834 61.9044 58.7804C62.2227 58.7831 62.5354 58.6965 62.8071 58.5306C63.0782 58.3641 63.2995 58.1277 63.4477 57.8462C63.6054 57.5448 63.6856 57.2089 63.681 56.8688C63.6849 56.5291 63.604 56.1939 63.4455 55.8934C63.2968 55.611 63.0757 55.3732 62.8049 55.2043C62.5346 55.0369 62.2223 54.9497 61.9044 54.9528Z" fill="white"/>
<path d="M69.5084 54.5636H69.9515V59.1599H69.5244V58.3186C69.42 58.5044 69.281 58.6686 69.115 58.8023C68.9348 58.9482 68.7312 59.0624 68.5128 59.1402C68.2846 59.2223 68.0437 59.2638 67.8012 59.263C67.4693 59.2708 67.1409 59.193 66.8478 59.0372C66.575 58.8854 66.3548 58.6544 66.2162 58.3747C66.0675 58.0839 65.9929 57.7326 65.9926 57.3209V54.5636H66.4405V57.2627C66.4405 57.7666 66.568 58.1545 66.8232 58.4265C67.0784 58.6984 67.4313 58.8341 67.8818 58.8338C68.1637 58.8341 68.4407 58.7604 68.6852 58.6202C68.932 58.4821 69.1381 58.2814 69.2826 58.0383C69.4334 57.7839 69.5108 57.4927 69.5063 57.197L69.5084 54.5636Z" fill="white"/>
<path d="M67.8033 59.3164C67.4622 59.3239 67.1249 59.2438 66.8237 59.0836C66.5421 58.9267 66.3147 58.6881 66.1714 58.3993C66.0187 58.1019 65.9413 57.7394 65.9413 57.3209V54.5103H66.4959V57.2627C66.4959 57.7506 66.6198 58.1297 66.8643 58.3897C67.1088 58.6496 67.4515 58.7804 67.8834 58.7804C68.1558 58.7812 68.4237 58.711 68.6607 58.5765C68.8994 58.4429 69.0988 58.2489 69.2388 58.0138C69.3845 57.7676 69.4594 57.4858 69.455 57.1997V54.5103H70.0049V59.2134H69.471V58.5034C69.3795 58.6301 69.2718 58.7444 69.1507 58.8434C68.9661 58.9934 68.7572 59.1107 68.5331 59.1904C68.299 59.2745 68.052 59.3172 67.8033 59.3164ZM66.0481 54.6186V57.3193C66.0481 57.7208 66.1217 58.0667 66.2664 58.3486C66.4002 58.6186 66.6125 58.8419 66.8755 58.9892C67.1609 59.1404 67.4804 59.216 67.8033 59.2086C68.0398 59.2094 68.2747 59.1689 68.4973 59.089C68.7103 59.0134 68.9089 58.902 69.0845 58.7596C69.2454 58.6305 69.3801 58.4718 69.4812 58.292L69.5815 58.1099V59.1055H69.9018V54.616H69.5655V57.1987C69.569 57.5039 69.4883 57.8043 69.3322 58.0667C69.1823 58.3175 68.9693 58.5247 68.7146 58.6678C68.4617 58.8112 68.1757 58.8861 67.885 58.8851C67.4216 58.8851 67.0522 58.742 66.788 58.458C66.5237 58.174 66.3908 57.7736 66.3908 57.2579V54.6122L66.0481 54.6186Z" fill="white"/>
<path d="M72.6058 59.1599H72.1584V54.9795H71.3165V54.5636H72.1584V53.3998L72.6058 53.3192V54.5636H73.8368V54.9795H72.6058V59.1599Z" fill="white"/>
<path d="M72.6592 59.2133H72.105V55.0328H71.2632V54.5102H72.105V53.355L72.6592 53.2551V54.5102H73.8902V55.0328H72.6592V59.2133ZM72.2118 59.1065H72.5524V54.926H73.7834V54.6169H72.5524V53.3832L72.2118 53.4441V54.6186H71.37V54.9276H72.2118V59.1065Z" fill="white"/>
<path d="M76.2267 60.7492H75.7463L76.4179 59.1599L74.511 54.5636H74.9941L76.6458 58.6277L78.2975 54.5636H78.7902L76.2267 60.7492Z" fill="white"/>
<path d="M76.2625 60.8026H75.6673L76.3612 59.16L74.4325 54.5103H75.032L75.0453 54.5434L76.6469 58.4857L78.2628 54.5103H78.8708L76.2625 60.8026ZM75.8285 60.6958H76.191L78.7117 54.617H78.3381L76.6458 58.7692L74.9583 54.617H74.591L76.4755 59.1605L75.8285 60.6958Z" fill="white"/>
<path d="M87.873 59.16H87.3851L86.7274 57.5131H83.4507L82.793 59.16H82.3046L84.867 52.8671H85.3101L87.873 59.16ZM85.0576 53.4847L83.621 57.0833H86.5529L85.1115 53.4847L85.0848 53.4132L85.0576 53.4847Z" fill="white"/>
<path d="M87.9525 59.2134H87.3487L86.691 57.5665H83.488L82.8303 59.2134H82.2271L84.8306 52.8137H85.3452L87.9525 59.2134ZM87.4186 59.1066H87.7923L85.2726 52.9205H84.8989L82.3845 59.1066H82.7582L83.4159 57.4597H86.7652L87.4186 59.1066ZM86.6285 57.1367H83.5392L85.082 53.2616L85.1589 53.4661L86.6285 57.1367ZM83.6967 57.03H86.4727L85.0847 53.56L83.6967 57.03Z" fill="white"/>
<path d="M92.078 54.7782C92.4008 54.9865 92.6571 55.2829 92.8169 55.6323C92.9935 56.019 93.0814 56.4404 93.0742 56.8655C93.0751 56.9224 93.0721 56.9793 93.0651 57.0358H89.2514C89.2702 57.3657 89.3693 57.686 89.5402 57.9689C89.7021 58.2383 89.9311 58.4613 90.2048 58.6159C90.4807 58.7713 90.7925 58.8515 91.1091 58.8487C91.3846 58.8513 91.6578 58.7987 91.9125 58.6939C92.1562 58.5926 92.3775 58.4444 92.5638 58.2577L92.8099 58.578C92.5888 58.7968 92.3274 58.9707 92.0401 59.09C91.7377 59.2136 91.4134 59.2753 91.0867 59.2715C90.6801 59.2747 90.2808 59.1638 89.9341 58.9512C89.5876 58.7403 89.3038 58.4404 89.1126 58.0826C88.9116 57.7102 88.8085 57.2929 88.8131 56.8697C88.8077 56.4487 88.902 56.0324 89.088 55.6547C89.2606 55.3017 89.525 55.0017 89.8535 54.7862C90.1801 54.5729 90.5627 54.4614 90.9527 54.4659C91.3503 54.4579 91.7415 54.5664 92.078 54.7782ZM90.1381 55.1118C89.8878 55.2619 89.6805 55.4739 89.5359 55.7273C89.3784 56.0016 89.2829 56.3069 89.2562 56.622H92.6311C92.6089 56.3049 92.5211 55.9959 92.3733 55.7145C92.2411 55.4634 92.0431 55.253 91.8004 55.1059C91.5478 54.9576 91.2589 54.8824 90.9661 54.8887C90.6748 54.8854 90.3883 54.9626 90.1381 55.1118Z" fill="white"/>
<path d="M91.0867 59.3254C90.6706 59.3289 90.2618 59.2162 89.9064 58.9998C89.552 58.784 89.2619 58.4773 89.0661 58.1115C88.861 57.7311 88.7556 57.305 88.7597 56.873C88.7547 56.4436 88.8509 56.0192 89.0405 55.6339C89.2175 55.2727 89.4881 54.9655 89.8242 54.7445C90.1597 54.5261 90.5524 54.4119 90.9527 54.4162C91.3601 54.4077 91.7611 54.5179 92.1069 54.7333C92.4376 54.9471 92.7005 55.2505 92.8649 55.6083C93.0446 56.0021 93.1343 56.431 93.1276 56.8639C93.1287 56.9235 93.1255 56.9831 93.118 57.0422L93.111 57.0876H89.3096C89.3346 57.3898 89.4292 57.6821 89.5861 57.9417C89.7435 58.2033 89.9658 58.4197 90.2315 58.57C90.4993 58.7205 90.8019 58.7984 91.1091 58.7958C91.3774 58.7983 91.6435 58.7471 91.8917 58.6453C92.1291 58.5458 92.3445 58.4007 92.5259 58.2182L92.5692 58.175L92.8809 58.5834L92.8473 58.6165C92.6211 58.8398 92.3542 59.0175 92.061 59.1402C91.7517 59.2658 91.4205 59.3288 91.0867 59.3254ZM90.9527 54.5209C90.5739 54.5171 90.2025 54.6254 89.885 54.8321C89.5646 55.0426 89.3065 55.3351 89.1377 55.6793C88.9565 56.0501 88.8651 56.4582 88.8707 56.8708C88.8668 57.2851 88.9676 57.6937 89.1638 58.0586C89.3505 58.4075 89.6269 58.7001 89.9646 58.9063C90.3032 59.1126 90.6929 59.2201 91.0894 59.2165C91.4091 59.2199 91.7263 59.1597 92.0225 59.0393C92.2886 58.9283 92.5321 58.7696 92.7411 58.5711L92.5606 58.3341C92.3786 58.5059 92.1667 58.6432 91.9355 58.7392C91.6744 58.8472 91.3943 58.9017 91.1118 58.8994C90.786 58.902 90.4653 58.8194 90.1813 58.6597C89.8998 58.5005 89.6642 58.2712 89.4975 57.994C89.3224 57.7037 89.2205 57.3752 89.2007 57.0368L89.1969 56.9797H93.0197C93.0197 56.9482 93.0235 56.9092 93.0235 56.8628C93.0303 56.4456 92.9441 56.0322 92.771 55.6526C92.615 55.3131 92.3656 55.0249 92.0519 54.8219C91.7223 54.6176 91.3404 54.5137 90.9527 54.523V54.5209ZM92.6893 56.6733H89.1975L89.2028 56.6151C89.2309 56.2923 89.3288 55.9794 89.4895 55.698C89.639 55.4371 89.8527 55.2188 90.1103 55.0638C90.3688 54.9109 90.6642 54.8317 90.9645 54.8348C91.267 54.829 91.5654 54.9067 91.8266 55.0595C92.0772 55.2117 92.2818 55.4291 92.4186 55.6884C92.5693 55.9761 92.6591 56.2917 92.6823 56.6156L92.6893 56.6733ZM89.3154 56.5665H92.5719C92.5449 56.2774 92.4616 55.9963 92.3268 55.7391C92.1984 55.4972 92.0072 55.2943 91.7732 55.1519C91.5285 55.0093 91.2492 54.9369 90.9661 54.9426C90.6846 54.9392 90.4077 55.0131 90.1653 55.1561C89.9231 55.3018 89.7222 55.5071 89.5818 55.7524C89.4381 56.0034 89.3475 56.2812 89.3154 56.5687V56.5665Z" fill="white"/>
<path d="M95.0793 59.075C94.7734 58.9643 94.491 58.7973 94.2465 58.5828L94.5134 58.2513C94.7305 58.4313 94.9763 58.5737 95.2405 58.6725C95.5214 58.7862 95.8214 58.8454 96.1245 58.8471C96.3396 58.8507 96.5533 58.8119 96.7534 58.7329C96.9227 58.6666 97.0712 58.5559 97.1831 58.4126C97.2857 58.2767 97.34 58.1104 97.3374 57.9401C97.3435 57.7759 97.2894 57.6151 97.1852 57.4879C97.0639 57.3552 96.9128 57.2533 96.7443 57.1906C96.4916 57.0928 96.232 57.0141 95.9676 56.9552C95.5049 56.8445 95.1424 56.6856 94.8801 56.4785C94.7535 56.3822 94.6517 56.2571 94.5831 56.1135C94.5146 55.97 94.4814 55.8121 94.4862 55.6531C94.4846 55.4378 94.5503 55.2272 94.6741 55.051C94.8131 54.8608 95.0021 54.713 95.2202 54.6239C95.4879 54.512 95.7762 54.4574 96.0663 54.4638C96.3636 54.4636 96.659 54.5112 96.9413 54.6047C97.2091 54.6893 97.4577 54.8255 97.6732 55.0056L97.4089 55.3323C97.2223 55.1931 97.0145 55.085 96.7934 55.012C96.5565 54.931 96.3076 54.8903 96.0572 54.8914C95.8544 54.8867 95.6526 54.92 95.462 54.9896C95.3125 55.0427 95.1807 55.1364 95.0814 55.2602C94.9951 55.3743 94.9494 55.5139 94.9517 55.6569C94.9485 55.7925 94.9885 55.9256 95.0659 56.037C95.165 56.1634 95.2932 56.2639 95.4396 56.3301C95.6681 56.4371 95.9076 56.5189 96.1539 56.574C96.4451 56.6451 96.7306 56.7379 97.008 56.8516C97.2267 56.9411 97.4209 57.0815 97.5744 57.2611C97.7207 57.4355 97.7938 57.6586 97.7938 57.9305C97.7963 58.1762 97.7216 58.4165 97.5803 58.6175C97.4302 58.8288 97.225 58.995 96.9872 59.098C96.7154 59.2182 96.4206 59.2778 96.1234 59.2726C95.7662 59.2717 95.4122 59.2047 95.0793 59.075Z" fill="white"/>
<path d="M96.1309 59.3254C95.7647 59.3254 95.4016 59.2576 95.06 59.1252C94.7482 59.0116 94.4602 58.8411 94.2107 58.6223L94.1733 58.5882L94.5086 58.175L94.5502 58.2113C94.7633 58.3868 95.0039 58.5258 95.2624 58.6229C95.5371 58.7338 95.8304 58.7918 96.1266 58.7937C96.3348 58.7972 96.5416 58.7596 96.7352 58.6832C96.8954 58.6212 97.0361 58.5174 97.1425 58.3826C97.2382 58.2562 97.2888 58.1013 97.2861 57.9428C97.2918 57.7913 97.2423 57.643 97.1468 57.5253C97.031 57.399 96.8868 57.3021 96.7261 57.2424C96.476 57.146 96.2191 57.0684 95.9574 57.0101C95.4892 56.898 95.1166 56.7341 94.8492 56.5233C94.7163 56.4218 94.6095 56.2903 94.5375 56.1395C94.4655 55.9886 94.4303 55.8229 94.4349 55.6558C94.4333 55.4295 94.5024 55.2084 94.6324 55.0232C94.7767 54.824 94.9736 54.6689 95.201 54.5753C95.4755 54.4606 95.771 54.4048 96.0685 54.4114C96.3714 54.4116 96.6724 54.4602 96.96 54.5555C97.2334 54.6426 97.4872 54.782 97.7073 54.9661L97.7469 54.9997L97.4175 55.407L97.3758 55.3755C97.194 55.2394 96.9914 55.1334 96.7758 55.0616C96.5443 54.9826 96.3013 54.9427 96.0567 54.9437C95.8605 54.9394 95.6652 54.9714 95.4807 55.0381C95.3405 55.088 95.2168 55.1758 95.1236 55.2917C95.044 55.3962 95.0021 55.5245 95.0045 55.6558C95.0025 55.7805 95.0399 55.9027 95.1113 56.0049C95.2065 56.1241 95.3288 56.2189 95.4679 56.2815C95.693 56.3864 95.9287 56.4667 96.171 56.5211C96.4658 56.593 96.7548 56.6867 97.0358 56.8014C97.2628 56.8949 97.4641 57.0413 97.623 57.2285C97.7767 57.4121 97.8552 57.6486 97.8552 57.9321C97.8574 58.1885 97.7798 58.4392 97.6331 58.6496C97.4771 58.8685 97.2646 59.0411 97.0182 59.1487C96.7387 59.271 96.436 59.3313 96.1309 59.3254ZM95.0985 59.0275C95.4277 59.1552 95.7778 59.2207 96.1309 59.2208C96.4205 59.2256 96.7077 59.1676 96.9728 59.051C97.2016 58.9513 97.399 58.7913 97.544 58.5882C97.6784 58.3958 97.7495 58.1662 97.7474 57.9315C97.7474 57.6737 97.6774 57.4602 97.5402 57.2968C97.3922 57.1236 97.205 56.9882 96.9941 56.9018C96.7182 56.7892 96.4343 56.6973 96.1448 56.6268C95.8948 56.5707 95.6518 56.4875 95.4198 56.3786C95.265 56.3087 95.1294 56.2025 95.0243 56.069C94.9406 55.9485 94.8972 55.8046 94.9004 55.6579C94.8991 55.504 94.9484 55.3539 95.0408 55.2309C95.1461 55.0993 95.2858 54.9995 95.4444 54.9426C95.6413 54.8707 95.8498 54.8361 96.0594 54.8406C96.3158 54.8398 96.5705 54.8816 96.8132 54.9645C97.0225 55.0349 97.2203 55.1356 97.4004 55.2634L97.599 55.0179C97.3977 54.8592 97.1695 54.738 96.9253 54.6602C96.6483 54.5687 96.3585 54.522 96.0669 54.5219C95.7844 54.5154 95.5036 54.5679 95.2426 54.6762C95.0333 54.7624 94.8518 54.9049 94.7184 55.0878C94.6012 55.2553 94.5389 55.4551 94.5401 55.6595C94.5348 55.8106 94.5661 55.9606 94.6311 56.0971C94.6962 56.2335 94.7931 56.3522 94.9138 56.4432C95.1689 56.6445 95.5277 56.8014 95.9814 56.9098C96.2483 56.9695 96.5105 57.0489 96.7656 57.1473C96.9419 57.2136 97.0999 57.3206 97.2269 57.4596C97.3391 57.5965 97.3977 57.7696 97.3919 57.9465C97.3946 58.1284 97.3363 58.306 97.2264 58.451C97.1084 58.6009 96.9525 58.7165 96.7747 58.7857C96.5683 58.8675 96.3477 58.9078 96.1256 58.9042C95.8158 58.9022 95.5091 58.8417 95.2218 58.7259C94.9697 58.6303 94.7336 58.4971 94.5214 58.3309L94.3191 58.5807C94.5508 58.7738 94.8141 58.9255 95.0974 59.0291L95.0985 59.0275Z" fill="white"/>
<path d="M99.9746 59.1599H99.5272V54.9795H98.6859V54.5636H99.5272V53.3998L99.9746 53.3192V54.5636H101.206V54.9795H99.9746V59.1599Z" fill="white"/>
<path d="M100.028 59.2133H99.4738V55.0328H98.6324V54.5102H99.4738V53.355L100.028 53.2551V54.5102H101.259V55.0328H100.028V59.2133ZM99.5805 59.1065H99.9211V54.926H101.152V54.6169H99.9211V53.3832L99.5805 53.4441V54.6186H98.7392V54.9276H99.5805V59.1065Z" fill="white"/>
<path d="M105.607 54.6864C105.879 54.8382 106.099 55.0693 106.238 55.3489C106.386 55.6397 106.461 55.9911 106.461 56.4033V59.16H106.014V56.4615C106.014 55.9572 105.886 55.5692 105.631 55.2977C105.376 55.0261 105.023 54.8904 104.572 54.8904C104.291 54.8891 104.014 54.9616 103.769 55.1007C103.522 55.2385 103.316 55.4393 103.172 55.6826C103.021 55.9369 102.943 56.2282 102.948 56.5239V59.16H102.504V52.4689H102.948V55.3735C103.055 55.1937 103.195 55.0352 103.36 54.9058C103.538 54.764 103.739 54.6536 103.955 54.5791C104.179 54.5 104.415 54.46 104.653 54.4606C104.985 54.4529 105.313 54.5306 105.607 54.6864Z" fill="white"/>
<path d="M106.515 59.2133H105.96V56.4614C105.96 55.9734 105.837 55.5939 105.592 55.3339C105.348 55.0739 105.005 54.9437 104.572 54.9437C104.3 54.9427 104.032 55.0128 103.795 55.1471C103.557 55.2811 103.357 55.4753 103.217 55.7103C103.072 55.9566 102.999 56.2382 103.004 56.5238V59.2133H102.453V52.4154H103.004V55.1972C103.097 55.073 103.206 54.9611 103.328 54.8641C103.511 54.7187 103.718 54.6054 103.939 54.5289C104.169 54.4477 104.411 54.4066 104.655 54.4072C104.996 54.3998 105.333 54.4799 105.634 54.6399C105.916 54.7971 106.143 55.0356 106.287 55.3243C106.44 55.6222 106.517 55.9846 106.517 56.4032L106.515 59.2133ZM106.067 59.1065H106.408V56.4032C106.408 56.0017 106.335 55.6558 106.19 55.3734C106.056 55.1033 105.844 54.88 105.58 54.7328C105.295 54.5815 104.976 54.5059 104.653 54.5134C104.421 54.513 104.191 54.552 103.972 54.6287C103.763 54.7022 103.567 54.8105 103.393 54.949C103.233 55.0745 103.098 55.2281 102.994 55.4022L102.895 55.5715V52.5238H102.558V59.1081H102.895V56.5254C102.89 56.2199 102.97 55.9191 103.126 55.6563C103.275 55.4056 103.488 55.1985 103.743 55.0558C103.996 54.9125 104.282 54.8376 104.572 54.8385C105.036 54.8385 105.406 54.981 105.67 55.2624C105.934 55.5437 106.067 55.9467 106.067 56.463V59.1065Z" fill="white"/>
<path d="M111.222 54.7782C111.544 54.9865 111.8 55.2829 111.96 55.6324C112.137 56.019 112.225 56.4404 112.217 56.8655C112.218 56.9224 112.215 56.9793 112.209 57.0358H108.395C108.414 57.3657 108.513 57.6861 108.684 57.969C108.846 58.2384 109.075 58.4613 109.348 58.616C109.624 58.7713 109.936 58.8516 110.253 58.8487C110.527 58.851 110.799 58.7983 111.053 58.6939C111.297 58.5927 111.518 58.4445 111.704 58.2578L111.951 58.5781C111.73 58.7969 111.468 58.9707 111.181 59.09C110.878 59.2136 110.554 59.2753 110.228 59.2715C109.821 59.2748 109.422 59.1638 109.075 58.9512C108.728 58.7404 108.445 58.4404 108.253 58.0827C108.052 57.7103 107.949 57.293 107.953 56.8698C107.948 56.4487 108.042 56.0323 108.229 55.6548C108.401 55.3018 108.666 55.0018 108.994 54.7862C109.321 54.573 109.703 54.4615 110.093 54.4659C110.492 54.4573 110.884 54.5659 111.222 54.7782ZM109.281 55.1119C109.031 55.262 108.823 55.4739 108.679 55.7274C108.522 56.0018 108.426 56.3071 108.399 56.6221H111.772C111.75 56.3051 111.663 55.9961 111.515 55.7146C111.383 55.4635 111.185 55.2531 110.942 55.106C110.69 54.9576 110.4 54.8824 110.107 54.8887C109.817 54.8859 109.531 54.9631 109.281 55.1119Z" fill="white"/>
<path d="M110.23 59.3254C109.814 59.3289 109.405 59.2162 109.05 58.9998C108.695 58.7839 108.405 58.4772 108.209 58.1115C108.004 57.7311 107.898 57.305 107.903 56.873C107.897 56.4436 107.994 56.019 108.184 55.6339C108.361 55.2727 108.631 54.9655 108.968 54.7445C109.303 54.5262 109.695 54.412 110.096 54.4162C110.503 54.4078 110.904 54.5179 111.25 54.7333C111.581 54.947 111.844 55.2503 112.008 55.6077C112.188 56.0018 112.277 56.4309 112.27 56.8639C112.271 56.9235 112.268 56.9831 112.261 57.0422L112.254 57.0876H108.452C108.478 57.3897 108.573 57.6819 108.729 57.9417C108.886 58.2031 109.109 58.4196 109.374 58.57C109.642 58.7204 109.945 58.7983 110.252 58.7958C110.521 58.7983 110.787 58.7471 111.035 58.6453C111.272 58.5458 111.488 58.4007 111.669 58.2182L111.713 58.175L112.024 58.5834L111.991 58.6165C111.764 58.8399 111.497 59.0177 111.204 59.1402C110.895 59.2659 110.564 59.3288 110.23 59.3254ZM110.096 54.5209C109.717 54.5171 109.345 54.6254 109.028 54.8321C108.707 55.0424 108.449 55.335 108.28 55.6793C108.098 56.0497 108.005 56.4579 108.01 56.8708C108.006 57.2852 108.107 57.6938 108.304 58.0586C108.491 58.4075 108.767 58.7001 109.105 58.9063C109.443 59.1126 109.833 59.2201 110.23 59.2165C110.549 59.2199 110.866 59.1596 111.162 59.0393C111.428 58.9284 111.672 58.7698 111.881 58.5711L111.7 58.3341C111.518 58.5059 111.307 58.6432 111.076 58.7392C110.815 58.8471 110.534 58.9016 110.252 58.8994C109.926 58.9022 109.605 58.8195 109.321 58.6597C109.04 58.5004 108.804 58.2711 108.637 57.994C108.462 57.7036 108.361 57.3751 108.341 57.0368L108.337 56.9797H112.16C112.162 56.948 112.163 56.9091 112.163 56.8628C112.17 56.4457 112.084 56.0323 111.911 55.6526C111.755 55.3132 111.506 55.0251 111.192 54.8219C110.863 54.6182 110.482 54.5143 110.096 54.523V54.5209ZM111.832 56.6733H108.34L108.346 56.6151C108.374 56.2922 108.472 55.9792 108.633 55.698C108.782 55.4371 108.996 55.2187 109.254 55.0638C109.512 54.9108 109.808 54.8316 110.108 54.8348C110.411 54.829 110.709 54.9068 110.97 55.0595C111.221 55.2119 111.426 55.4292 111.563 55.6884C111.713 55.9761 111.803 56.2917 111.826 56.6156L111.832 56.6733ZM108.459 56.5665H111.715C111.688 56.2773 111.605 55.9962 111.47 55.7391C111.342 55.4969 111.15 55.294 110.916 55.1519C110.671 55.0092 110.392 54.9368 110.109 54.9426C109.827 54.9393 109.551 55.0131 109.308 55.1561C109.066 55.3019 108.865 55.5072 108.725 55.7524C108.581 56.0033 108.491 56.2812 108.459 56.5687V56.5665Z" fill="white"/>
<path d="M114.527 59.1599H114.079V54.9795H113.238V54.5636H114.079V53.3998L114.527 53.3192V54.5636H115.758V54.9795H114.527V59.1599Z" fill="white"/>
<path d="M114.58 59.2133H114.026V55.0328H113.184V54.5102H114.026V53.355L114.58 53.2551V54.5102H115.811V55.0328H114.58V59.2133ZM114.132 59.1065H114.474V54.926H115.704V54.6169H114.474V53.3832L114.132 53.4441V54.6186H113.291V54.9276H114.132V59.1065Z" fill="white"/>
<path d="M117.031 53.2087C117 53.1795 116.976 53.1441 116.959 53.1049C116.942 53.0656 116.934 53.0234 116.935 52.9807C116.934 52.9372 116.942 52.894 116.958 52.8535C116.974 52.8131 116.998 52.7763 117.029 52.7453C117.06 52.7135 117.098 52.6885 117.139 52.672C117.181 52.6555 117.226 52.6477 117.27 52.6492C117.315 52.6478 117.36 52.6555 117.402 52.672C117.444 52.6886 117.482 52.7135 117.514 52.7453C117.546 52.7759 117.57 52.8125 117.587 52.853C117.604 52.8935 117.612 52.937 117.611 52.9807C117.612 53.0234 117.603 53.0657 117.587 53.105C117.57 53.1442 117.546 53.1796 117.514 53.2087C117.482 53.24 117.444 53.2645 117.402 53.2806C117.36 53.2968 117.315 53.3043 117.27 53.3027C117.226 53.304 117.182 53.2963 117.141 53.2802C117.1 53.264 117.063 53.2397 117.031 53.2087ZM117.499 59.1615H117.057V54.5652H117.501L117.499 59.1615Z" fill="white"/>
<path d="M117.552 59.2134H117.004V54.5102H117.554L117.552 59.2134ZM117.109 59.1066H117.446V54.617H117.111L117.109 59.1066ZM117.269 53.3545C117.218 53.3561 117.168 53.3474 117.12 53.3291C117.073 53.3107 117.029 53.2831 116.993 53.2477C116.957 53.2135 116.928 53.172 116.908 53.1261C116.889 53.0801 116.879 53.0307 116.88 52.9808C116.879 52.9304 116.889 52.8803 116.907 52.8336C116.926 52.7868 116.954 52.7443 116.99 52.7085C117.026 52.6714 117.069 52.6421 117.118 52.6227C117.166 52.6034 117.217 52.5942 117.269 52.5959C117.321 52.5945 117.373 52.6037 117.422 52.6229C117.47 52.642 117.514 52.6708 117.551 52.7075C117.588 52.743 117.616 52.7856 117.635 52.8326C117.655 52.8796 117.664 52.93 117.663 52.9808C117.664 53.0307 117.654 53.0801 117.635 53.1261C117.616 53.172 117.587 53.2135 117.551 53.2477C117.513 53.2831 117.47 53.3108 117.422 53.3291C117.373 53.3474 117.322 53.356 117.271 53.3545H117.269ZM117.269 52.7011C117.232 52.6995 117.194 52.7058 117.159 52.7196C117.124 52.7334 117.092 52.7544 117.066 52.7811C117.04 52.8071 117.02 52.838 117.006 52.8721C116.993 52.9061 116.986 52.9426 116.987 52.9792C116.986 53.0147 116.993 53.05 117.007 53.0826C117.021 53.1153 117.041 53.1446 117.068 53.1687C117.094 53.1948 117.126 53.2152 117.16 53.2287C117.195 53.2422 117.232 53.2485 117.269 53.2472C117.307 53.2488 117.345 53.2426 117.381 53.2291C117.416 53.2156 117.449 53.1951 117.476 53.1687C117.502 53.1444 117.523 53.115 117.536 53.0822C117.55 53.0495 117.557 53.0142 117.557 52.9787C117.557 52.942 117.551 52.9055 117.537 52.8715C117.523 52.8375 117.502 52.8068 117.476 52.7811C117.449 52.7546 117.417 52.7338 117.382 52.72C117.346 52.7062 117.309 52.6998 117.271 52.7011H117.269Z" fill="white"/>
<path d="M120.359 58.9523C119.999 58.7428 119.7 58.4426 119.493 58.0817C119.28 57.7148 119.169 57.2973 119.172 56.873C119.168 56.4473 119.279 56.0284 119.493 55.6602C119.701 55.2987 119.999 54.9978 120.359 54.7873C120.721 54.5737 121.134 54.4629 121.554 54.467C121.874 54.4642 122.191 54.5259 122.487 54.6485C122.773 54.7676 123.032 54.9417 123.25 55.161L123.004 55.4813C122.816 55.2947 122.594 55.1451 122.351 55.0404C122.105 54.9365 121.839 54.884 121.572 54.8861C121.228 54.8847 120.89 54.977 120.594 55.153C120.297 55.3262 120.051 55.5746 119.88 55.8732C119.703 56.179 119.611 56.5269 119.613 56.8805C119.61 57.232 119.702 57.5778 119.88 57.8809C120.051 58.1779 120.298 58.4248 120.594 58.5968C120.89 58.771 121.227 58.8616 121.57 58.8589C121.839 58.8611 122.106 58.8094 122.355 58.7068C122.598 58.606 122.819 58.4602 123.006 58.277L123.253 58.5904C123.032 58.8081 122.772 58.9806 122.485 59.0981C122.191 59.2198 121.875 59.2815 121.557 59.2796C121.135 59.2807 120.721 59.1676 120.359 58.9523Z" fill="white"/>
<path d="M121.559 59.3254C121.127 59.3291 120.703 59.216 120.331 58.9982C119.963 58.7838 119.658 58.477 119.446 58.1083C119.228 57.7332 119.115 57.3066 119.119 56.873C119.115 56.4379 119.228 56.0099 119.446 55.6334C119.658 55.2641 119.963 54.9567 120.331 54.7414C120.701 54.5226 121.123 54.4086 121.553 54.4114C121.88 54.409 122.204 54.472 122.507 54.5967C122.798 54.7192 123.064 54.8972 123.287 55.1209L123.32 55.154L123.009 55.5571L122.966 55.5149C122.782 55.3328 122.566 55.1869 122.329 55.0846C122.089 54.9838 121.831 54.9328 121.571 54.9346C121.237 54.9329 120.908 55.0216 120.62 55.1914C120.331 55.3605 120.092 55.6024 119.926 55.8928C119.755 56.1909 119.666 56.5292 119.669 56.873C119.666 57.2148 119.756 57.551 119.928 57.8462C120.095 58.1348 120.334 58.3751 120.622 58.5434C120.91 58.7122 121.238 58.8001 121.571 58.798C121.834 58.7999 122.094 58.7496 122.336 58.6501C122.572 58.5514 122.788 58.4092 122.971 58.2311L123.013 58.1899L123.326 58.5871L123.292 58.6208C123.067 58.843 122.8 59.0194 122.507 59.1402C122.206 59.264 121.884 59.3269 121.559 59.3254ZM121.554 54.5182C121.143 54.5157 120.74 54.6245 120.386 54.8332C120.034 55.0398 119.743 55.3341 119.539 55.6873C119.331 56.0476 119.223 56.4572 119.226 56.8735C119.223 57.2884 119.331 57.6965 119.539 58.0554C119.742 58.4081 120.034 58.7015 120.386 58.9064C120.742 59.1147 121.148 59.2228 121.56 59.2192C121.872 59.2207 122.18 59.1604 122.468 59.042C122.733 58.9327 122.976 58.7756 123.184 58.5786L123.004 58.349C122.821 58.5178 122.609 58.6531 122.379 58.7489C122.124 58.8542 121.85 58.9073 121.573 58.9053C121.221 58.9079 120.874 58.8157 120.57 58.6384C120.266 58.4609 120.013 58.2074 119.837 57.9027C119.655 57.5913 119.561 57.2364 119.564 56.8756C119.561 56.513 119.654 56.156 119.835 55.8416C120.01 55.5352 120.263 55.2802 120.568 55.1022C120.872 54.9226 121.22 54.8287 121.573 54.8305C121.848 54.8292 122.12 54.8837 122.374 54.9907C122.605 55.0899 122.817 55.2289 123.001 55.4012L123.182 55.1679C122.975 54.9692 122.733 54.8105 122.469 54.6997C122.179 54.5787 121.868 54.5169 121.554 54.5182Z" fill="white"/>
<path d="M125.099 59.075C124.793 58.9644 124.511 58.7975 124.266 58.5828L124.533 58.2513C124.751 58.4312 124.997 58.5736 125.261 58.6725C125.542 58.7862 125.842 58.8454 126.145 58.8471C126.36 58.8507 126.574 58.8119 126.774 58.7329C126.942 58.6663 127.09 58.5557 127.201 58.4126C127.304 58.2768 127.358 58.1105 127.356 57.9401C127.362 57.7759 127.308 57.6151 127.204 57.4879C127.082 57.3552 126.931 57.2533 126.763 57.1906C126.51 57.0929 126.25 57.0142 125.986 56.9552C125.523 56.8445 125.161 56.6856 124.898 56.4785C124.772 56.3822 124.67 56.2571 124.601 56.1135C124.533 55.97 124.5 55.8121 124.504 55.6531C124.503 55.4377 124.568 55.2271 124.692 55.051C124.831 54.8608 125.02 54.713 125.238 54.6239C125.506 54.512 125.794 54.4574 126.085 54.4638C126.382 54.4636 126.677 54.5112 126.96 54.6047C127.227 54.6894 127.476 54.8256 127.691 55.0056L127.427 55.3323C127.241 55.1931 127.033 55.085 126.812 55.012C126.575 54.931 126.326 54.8903 126.076 54.8914C125.873 54.8866 125.671 54.92 125.48 54.9896C125.331 55.0427 125.199 55.1364 125.1 55.2602C125.013 55.3743 124.968 55.5139 124.97 55.6569C124.967 55.7925 125.007 55.9256 125.084 56.037C125.183 56.1634 125.312 56.2639 125.458 56.3301C125.686 56.437 125.926 56.5189 126.172 56.574C126.464 56.6449 126.751 56.7377 127.029 56.8516C127.248 56.941 127.442 57.0814 127.595 57.2611C127.741 57.4355 127.814 57.6586 127.814 57.9305C127.817 58.1762 127.742 58.4165 127.601 58.6175C127.45 58.8287 127.245 58.9949 127.008 59.098C126.736 59.2182 126.441 59.2778 126.144 59.2726C125.786 59.2718 125.432 59.2048 125.099 59.075Z" fill="white"/>
<path d="M126.151 59.3254C125.785 59.3255 125.421 59.2576 125.08 59.1252C124.768 59.0117 124.48 58.8411 124.231 58.6224L124.193 58.5882L124.531 58.1734L124.573 58.2097C124.786 58.3852 125.027 58.5243 125.285 58.6213C125.56 58.7322 125.853 58.7902 126.149 58.7921C126.357 58.7956 126.564 58.7581 126.757 58.6816C126.918 58.6197 127.059 58.5159 127.165 58.3811C127.261 58.2545 127.311 58.0997 127.309 57.9412C127.314 57.7897 127.265 57.6414 127.169 57.5237C127.054 57.3975 126.909 57.3005 126.749 57.2408C126.499 57.1445 126.242 57.0669 125.98 57.0086C125.512 56.8965 125.139 56.7326 124.872 56.5217C124.739 56.4203 124.632 56.2887 124.56 56.1379C124.488 55.9871 124.453 55.8213 124.457 55.6542C124.456 55.4279 124.525 55.2068 124.655 55.0216C124.799 54.8225 124.996 54.6674 125.224 54.5737C125.498 54.459 125.794 54.4032 126.091 54.4098C126.394 54.41 126.695 54.4587 126.983 54.554C127.256 54.641 127.51 54.7804 127.73 54.9645L127.769 54.9981L127.441 55.4054L127.399 55.374C127.217 55.2377 127.014 55.1317 126.798 55.0601C126.567 54.981 126.324 54.9411 126.08 54.9421C125.884 54.9378 125.688 54.9698 125.504 55.0366C125.364 55.0863 125.24 55.1741 125.147 55.2901C125.067 55.3946 125.025 55.5229 125.028 55.6542C125.025 55.7786 125.061 55.9008 125.132 56.0033C125.227 56.1227 125.349 56.2175 125.488 56.2799C125.713 56.3848 125.949 56.4652 126.191 56.5196C126.486 56.5914 126.775 56.6851 127.056 56.7998C127.283 56.8935 127.484 57.0399 127.643 57.2269C127.797 57.4105 127.875 57.647 127.875 57.9305C127.877 58.1869 127.8 58.4376 127.653 58.648C127.497 58.8669 127.285 59.0395 127.039 59.1471C126.759 59.27 126.456 59.3309 126.151 59.3254ZM125.118 59.0275C125.448 59.1552 125.798 59.2207 126.151 59.2208C126.44 59.2256 126.727 59.1677 126.992 59.051C127.221 58.9513 127.419 58.7914 127.564 58.5882C127.698 58.3956 127.769 58.1662 127.767 57.9316C127.767 57.6743 127.697 57.4602 127.56 57.2968C127.412 57.1236 127.225 56.9882 127.014 56.9018C126.738 56.7893 126.454 56.6974 126.165 56.6269C125.915 56.5707 125.672 56.4875 125.44 56.3786C125.285 56.3087 125.149 56.2025 125.044 56.069C124.961 55.9484 124.917 55.8046 124.92 55.6579C124.919 55.504 124.968 55.3538 125.061 55.2309C125.166 55.0992 125.306 54.9994 125.464 54.9426C125.661 54.8707 125.87 54.8361 126.079 54.8406C126.336 54.8397 126.59 54.8816 126.833 54.9645C127.042 55.0347 127.24 55.1354 127.42 55.2634L127.619 55.0179C127.417 54.8591 127.189 54.7379 126.945 54.6602C126.668 54.5687 126.378 54.522 126.087 54.5219C125.804 54.5154 125.524 54.5679 125.263 54.6762C125.053 54.7621 124.871 54.9046 124.738 55.0878C124.621 55.2552 124.559 55.4551 124.56 55.6596C124.555 55.8106 124.586 55.9607 124.651 56.0971C124.716 56.2335 124.813 56.3522 124.934 56.4432C125.189 56.6445 125.548 56.8014 126.001 56.9098C126.268 56.9695 126.53 57.0489 126.786 57.1474C126.962 57.2136 127.12 57.3206 127.247 57.4597C127.359 57.5966 127.418 57.7696 127.412 57.9465C127.415 58.1284 127.356 58.306 127.246 58.451C127.128 58.6009 126.972 58.7165 126.795 58.7857C126.588 58.8675 126.368 58.9078 126.145 58.9042C125.836 58.9023 125.529 58.8418 125.242 58.7259C124.99 58.6304 124.753 58.4972 124.541 58.3309L124.339 58.5807C124.571 58.7733 124.835 58.9245 125.118 59.0275Z" fill="white"/>
<path d="M33.2981 27.9369C33.2981 21.3893 27.901 19.1408 22.1543 19.1408C27.7014 17.7411 30.4506 14.4927 30.4506 11.1946C30.6001 5.24767 26.0016 2.74878 18.2562 2.74878H6.91211V6.0479C8.61025 5.39768 10.31 4.79765 12.108 4.44638C10.1605 5.79539 10.3602 6.89457 10.3602 8.69414V29.6836C10.3602 33.5806 10.7093 35.5804 6.91211 36.4804V37.7296H21.5035C28.2512 37.7317 33.2981 34.0333 33.2981 27.9369ZM18.1563 3.9985C18.5367 3.93844 18.9207 3.90508 19.3057 3.89867C20.1556 3.89867 21.1549 4.04868 22.2044 4.39781C25.2532 5.39769 26.6022 7.59603 26.6518 11.1946C26.7517 14.6432 24.6526 18.8413 19.2059 18.8413H14.7083V10.545C14.7078 6.99653 14.4083 4.598 18.1558 3.9985H18.1563ZM12.5094 36.0325C14.6581 35.433 14.7083 33.6335 14.7083 31.8344V19.5407H19.6564C21.2046 19.5407 22.6534 19.8909 24.004 20.6398C26.7517 22.1394 28.4514 24.1888 28.4514 28.2363C28.4514 33.2341 25.0034 35.8323 19.8566 35.8323L12.5094 36.0325Z" fill="white"/>
<path d="M64.9825 33.983C67.0314 37.5816 70.0802 38.5313 73.4284 38.5313C77.6762 38.5313 82.0739 36.2321 82.0739 31.1846C82.0739 26.6865 78.0755 24.9878 74.2767 23.3906C70.779 21.9909 67.4804 20.6921 67.4804 17.5937C67.4804 15.5944 69.3301 13.7954 72.3789 13.7954C76.7265 13.7954 78.6248 16.494 79.0748 20.9414H80.324V12.7437H77.0259C78.1251 13.8434 78.5741 14.6431 78.8255 16.1923C77.9756 14.2929 76.8759 13.0961 75.5275 12.6439C74.179 12.1917 73.0275 11.9446 72.128 11.9446C65.3819 11.9446 63.5823 16.392 63.5823 19.1904C63.5823 24.2383 68.1306 25.8377 72.128 27.3869C75.2242 28.5859 78.0253 29.8853 78.0253 32.6335C78.0253 35.3331 75.0769 36.5839 72.5268 36.5839C68.5764 36.5839 65.6296 33.635 64.8309 29.4876H63.5807V38.0824H66.8803C65.8821 36.6821 65.282 35.7324 64.9825 33.983Z" fill="white"/>
<path d="M96.6648 34.4331C94.9149 35.1805 93.1158 35.6823 91.2196 36.0346C93.8178 35.0849 93.6684 33.7354 93.6684 31.7868V12.7438H85.9224V16.0418C87.6205 15.3927 89.3202 14.7932 91.1198 14.4403C89.1708 15.7899 89.3704 16.9889 89.3704 18.3373V29.9334C89.3704 33.5816 89.7196 35.5808 85.9224 36.4809V37.7301H96.6648V34.4331Z" fill="white"/>
<path d="M91.2196 7.04669C92.6685 7.04669 93.9176 5.84715 93.9176 4.34814C93.9176 2.8993 92.6685 1.64905 91.2196 1.64905C89.7195 1.64905 88.5205 2.8993 88.5205 4.34814C88.519 4.70298 88.5879 5.05459 88.723 5.3827C88.8581 5.71081 89.0569 6.00892 89.3078 6.2598C89.5587 6.51069 89.8569 6.70939 90.185 6.84445C90.5131 6.97951 90.8648 7.04825 91.2196 7.04669Z" fill="white"/>
<path d="M110.309 34.4332C108.561 35.1805 106.761 35.6823 104.864 36.0347C107.414 35.2339 107.362 33.6356 107.362 31.7869V0.00219727H99.5684V3.45079C100.967 2.75093 102.966 2.15142 104.466 1.7014C102.918 3.05094 103.016 4.25048 103.016 5.59842V29.9334C103.016 33.5817 103.367 35.5809 99.5684 36.481V37.7301H110.313L110.309 34.4332Z" fill="white"/>
<path d="M126.441 42.3366C100.123 45.7456 65.0498 42.1764 64.6708 42.1369C59.1641 41.6721 53.9614 41.3502 49.0629 41.1712L49.8375 38.1817H49.8909L56.1368 20.7401C57.3358 17.3423 58.1857 14.5941 60.785 13.9935V12.7438H52.9375V13.993H57.686C56.7363 14.293 56.0845 14.7937 55.737 15.5411C55.0366 17.0406 54.4878 18.6907 53.9374 20.139C52.5382 24.2875 51.1892 28.4354 49.6395 32.6842L40.3448 12.7438H34.7977V16.0418C36.4975 15.3927 38.1961 14.7932 39.9952 14.4403C38.0461 15.7899 38.0963 17.8387 39.8457 21.5868L47.2025 37.3388L46.2331 41.0804C18.3486 40.3534 1.47179 44.4383 0.0832784 52.6065C-0.82051 57.9294 5.66296 63.3319 16.2153 66.0529C18.9226 66.7511 21.505 67.1001 23.9624 67.0997C28.2865 67.0997 32.2075 66.0171 35.6743 63.8582C45.2834 57.8734 47.8741 45.8455 47.9648 45.4024L48.3545 43.9002C53.216 44.0721 58.5683 44.4013 64.4113 44.8878C64.7658 44.9241 100.154 48.5259 126.794 45.0768C127.158 45.0297 127.488 44.8401 127.711 44.5498C127.935 44.2595 128.035 43.8922 127.988 43.5286C127.94 43.1659 127.75 42.8368 127.46 42.6134C127.171 42.3901 126.804 42.2905 126.441 42.3366ZM45.2764 44.7741C45.2524 44.8878 42.7999 56.179 34.1987 61.5238C29.4332 64.4844 23.6165 65.1101 16.9067 63.3783C8.1074 61.11 2.17859 56.7758 2.80692 53.0753C3.47369 49.1574 12.4806 43.7491 39.9551 43.7491C41.7346 43.7491 43.5911 43.7724 45.5247 43.819L45.2764 44.7741Z" fill="white"/>
</g>
<defs>
<clipPath id="clip0_1_11394">
<rect width="128" height="67.0997" fill="white"/>
</clipPath>
</defs>
</svg>
