<svg xmlns="http://www.w3.org/2000/svg" width="128" height="68" fill="none"><g fill="#fff" clip-path="url(#a)"><path d="M48.253 59.16V52.87h2.524c.307-.007.612.064.884.206.245.13.447.328.582.569.138.25.208.533.203.819 0 .199-.04.395-.12.577-.078.182-.19.347-.33.486-.132.135-.291.24-.467.31.231.047.448.148.631.297a1.664 1.664 0 0 1 .622 1.311 1.72 1.72 0 0 1-.23.89c-.15.257-.368.467-.63.607a1.81 1.81 0 0 1-.88.217h-2.79Zm2.506-3.473a1.253 1.253 0 0 0 1.063-.602c.111-.181.17-.39.168-.602.002-.212-.05-.42-.15-.606a1.116 1.116 0 0 0-.427-.437 1.27 1.27 0 0 0-.65-.16H48.71v2.408l2.05-.001Zm.255 3.066c.233.003.463-.057.665-.172a1.24 1.24 0 0 0 .468-.48c.115-.211.173-.448.17-.688a1.338 1.338 0 0 0-.175-.673 1.273 1.273 0 0 0-.494-.486 1.479 1.479 0 0 0-.732-.18h-2.207v2.677l2.305.002Z"/><path d="M51.041 59.213H48.2v-6.395h2.578c.316-.006.628.067.908.214a1.5 1.5 0 0 1 .602.587c.142.258.215.55.21.845 0 .206-.042.41-.124.599a1.62 1.62 0 0 1-.34.502c-.103.102-.22.19-.347.258.184.056.355.147.505.267a1.708 1.708 0 0 1 .642 1.351 1.78 1.78 0 0 1-.237.918c-.156.264-.38.48-.65.626-.277.152-.589.23-.905.228Zm-2.735-.106h2.735c.298.003.592-.07.855-.21.252-.137.463-.34.609-.588.15-.262.228-.561.222-.864a1.61 1.61 0 0 0-.6-1.27 1.399 1.399 0 0 0-.607-.284l-.18-.035.17-.067c.169-.068.322-.17.45-.3a1.52 1.52 0 0 0 .32-.468c.076-.176.116-.365.116-.557a1.601 1.601 0 0 0-.197-.792 1.4 1.4 0 0 0-.56-.548 1.776 1.776 0 0 0-.86-.2h-2.47l-.003 6.183Zm2.708-.3h-2.358v-2.784h2.259c.264-.004.525.06.757.186.216.117.394.292.516.505.12.214.183.456.181.7.003.25-.057.495-.177.713-.113.208-.282.381-.487.5-.21.12-.449.182-.69.18Zm-2.252-.107h2.252c.225.003.446-.054.64-.166.19-.108.344-.267.449-.458.11-.203.166-.43.163-.661a1.288 1.288 0 0 0-.168-.648 1.219 1.219 0 0 0-.474-.465 1.43 1.43 0 0 0-.705-.172h-2.154l-.003 2.57Zm1.997-2.96h-2.103v-2.515h2.108c.236-.005.47.054.676.169.188.108.343.266.447.457.105.194.159.412.156.632.002.222-.06.44-.175.63a1.31 1.31 0 0 1-1.109.627Zm-1.997-.107h1.997a1.204 1.204 0 0 0 1.02-.577c.106-.172.162-.37.16-.573a1.2 1.2 0 0 0-.142-.58 1.064 1.064 0 0 0-.408-.417 1.218 1.218 0 0 0-.622-.154h-2.001l-.004 2.301ZM57.327 54.778c.323.209.58.505.74.854a2.852 2.852 0 0 1 .247 1.404h-3.813c.019.33.118.65.288.933a1.816 1.816 0 0 0 1.57.88 2.008 2.008 0 0 0 1.452-.59l.245.32a2.406 2.406 0 0 1-1.723.693 2.17 2.17 0 0 1-1.152-.32c-.347-.212-.63-.511-.821-.87a2.49 2.49 0 0 1-.3-1.212 2.665 2.665 0 0 1 .275-1.215c.172-.353.437-.653.765-.869a1.97 1.97 0 0 1 1.1-.32c.398-.009.79.1 1.127.312Zm-1.94.334c-.25.15-.457.362-.602.615-.157.275-.253.58-.28.895h3.375a2.298 2.298 0 0 0-.257-.907 1.568 1.568 0 0 0-.573-.609 1.58 1.58 0 0 0-.835-.217 1.583 1.583 0 0 0-.828.223Z"/><path d="M56.336 59.325a2.233 2.233 0 0 1-1.18-.325 2.328 2.328 0 0 1-.84-.889 2.559 2.559 0 0 1-.307-1.238c-.005-.43.091-.854.28-1.24.178-.36.449-.667.785-.889a2.029 2.029 0 0 1 1.128-.328 2.1 2.1 0 0 1 1.154.317c.33.214.593.517.758.875a2.913 2.913 0 0 1 .253 1.434l-.007.046h-3.802c.025.302.12.594.277.854a1.761 1.761 0 0 0 1.523.854c.268.002.534-.049.783-.15.237-.1.453-.245.634-.428l.043-.043.312.408-.034.034a2.483 2.483 0 0 1-.786.523 2.52 2.52 0 0 1-.974.185Zm-.134-4.804a1.921 1.921 0 0 0-1.068.311c-.32.21-.578.503-.747.847-.181.371-.273.78-.267 1.192a2.46 2.46 0 0 0 .293 1.188c.187.348.463.641.8.847.34.207.73.314 1.126.31.32.004.637-.056.933-.177.266-.11.51-.27.719-.468l-.181-.237a2.068 2.068 0 0 1-1.449.565 1.867 1.867 0 0 1-1.614-.905 2.091 2.091 0 0 1-.297-.957l-.003-.057h3.822c0-.032.004-.071.004-.117.006-.417-.08-.83-.253-1.21a1.967 1.967 0 0 0-.719-.831 1.996 1.996 0 0 0-1.101-.299l.002-.002Zm1.737 2.152h-3.492l.005-.058c.028-.323.126-.636.287-.917.15-.261.363-.48.621-.634.258-.153.554-.232.854-.23.303-.005.601.073.862.225.251.153.456.37.593.63.15.287.24.603.263.927l.007.057Zm-3.374-.107h3.257a2.24 2.24 0 0 0-.246-.827 1.525 1.525 0 0 0-.553-.587 1.542 1.542 0 0 0-.808-.21 1.54 1.54 0 0 0-.8.214 1.658 1.658 0 0 0-.584.596c-.144.251-.234.53-.266.817v-.003ZM63.712 54.564h.448v4.596h-.439v-.971l.005-.063c-.18.337-.441.622-.761.829-.323.206-.7.314-1.084.308a2.082 2.082 0 0 1-1.12-.318 2.27 2.27 0 0 1-.806-.865 2.512 2.512 0 0 1-.296-1.211c-.005-.423.097-.84.296-1.213.187-.356.465-.657.805-.87a2.07 2.07 0 0 1 1.122-.321c.379-.005.75.1 1.071.302.32.202.58.484.76.817v-1.02Zm-.877 4.012c.28-.17.508-.414.66-.705.163-.309.245-.653.24-1.002a2.081 2.081 0 0 0-.242-1 1.843 1.843 0 0 0-.66-.71 1.728 1.728 0 0 0-.93-.26 1.685 1.685 0 0 0-.916.26c-.276.174-.5.42-.65.71-.16.308-.242.652-.237 1-.005.349.076.693.238 1.002.149.29.373.533.649.705.274.172.593.261.917.258.328.003.651-.086.93-.258Z"/><path d="M61.881 59.316a2.145 2.145 0 0 1-1.151-.325 2.326 2.326 0 0 1-.824-.886 2.575 2.575 0 0 1-.303-1.236c-.003-.432.1-.858.303-1.239.191-.364.476-.671.824-.89.345-.217.744-.331 1.151-.329.39-.004.772.104 1.101.311.271.172.502.4.677.67v-.882h.554v4.703h-.545v-.886a2.27 2.27 0 0 1-.674.672 2.02 2.02 0 0 1-1.113.317Zm0-4.798a2.028 2.028 0 0 0-1.095.313 2.225 2.225 0 0 0-.786.85 2.485 2.485 0 0 0-.29 1.188c-.004.413.095.82.29 1.185.183.346.454.638.786.846.329.205.709.312 1.095.31.374.005.74-.1 1.055-.3.312-.203.568-.48.743-.81l.118-.216-.023.309v.914h.332v-4.49h-.34v1.175l-.1-.184a2.155 2.155 0 0 0-.74-.798 1.915 1.915 0 0 0-1.045-.292Zm.023 4.37a1.754 1.754 0 0 1-.946-.268 1.875 1.875 0 0 1-.668-.725 2.175 2.175 0 0 1-.243-1.027 2.18 2.18 0 0 1 .243-1.026c.154-.298.384-.55.668-.73.283-.178.612-.27.946-.267.338-.003.67.09.957.267.287.18.521.43.679.73.167.316.252.668.248 1.026.005.357-.08.71-.246 1.027-.157.299-.391.55-.679.726-.288.176-.62.268-.959.266Zm0-3.935a1.643 1.643 0 0 0-.889.25c-.267.17-.485.408-.63.69a2.071 2.071 0 0 0-.232.976c-.004.34.075.675.232.977.145.28.363.517.63.685.267.166.575.252.89.25.318.002.63-.084.902-.25.271-.167.492-.403.64-.685.158-.301.239-.637.234-.977a2.04 2.04 0 0 0-.235-.976 1.801 1.801 0 0 0-.641-.689 1.68 1.68 0 0 0-.9-.251ZM69.508 54.564h.444v4.596h-.428v-.841c-.104.185-.243.35-.409.483a2.082 2.082 0 0 1-1.314.46c-.332.009-.66-.069-.953-.225a1.541 1.541 0 0 1-.632-.662c-.148-.291-.223-.642-.223-1.054v-2.757h.448v2.699c0 .504.127.892.382 1.163.255.272.608.408 1.059.408.282 0 .559-.074.803-.214a1.609 1.609 0 0 0 .821-1.423l.002-2.633Z"/><path d="M67.803 59.316a1.993 1.993 0 0 1-.98-.232 1.595 1.595 0 0 1-.652-.685c-.152-.297-.23-.66-.23-1.078v-2.81h.555v2.752c0 .488.124.867.368 1.127.245.26.587.39 1.02.39.272.001.54-.069.777-.203a1.552 1.552 0 0 0 .794-1.377v-2.69h.55v4.703h-.534v-.71c-.092.127-.2.241-.32.34a2.138 2.138 0 0 1-1.347.473Zm-1.755-4.697v2.7c0 .402.074.748.218 1.03.134.27.346.493.61.64.285.151.604.227.927.22a2.034 2.034 0 0 0 1.282-.45c.16-.129.295-.287.396-.467l.1-.182v.995h.32v-4.489h-.335v2.583a1.66 1.66 0 0 1-.851 1.469 1.67 1.67 0 0 1-.83.217c-.463 0-.833-.143-1.097-.427-.264-.284-.397-.684-.397-1.2v-2.646l-.343.007ZM72.606 59.16h-.448v-4.18h-.841v-.416h.841V53.4l.448-.08v1.244h1.23v.416h-1.23v4.18Z"/><path d="M72.66 59.213h-.555v-4.18h-.842v-.523h.842v-1.155l.554-.1v1.255h1.231v.523h-1.23v4.18Zm-.448-.107h.34v-4.18h1.231v-.31h-1.23v-1.233l-.341.061v1.175h-.842v.309h.842v4.178ZM76.227 60.75h-.48l.67-1.59-1.906-4.596h.483l1.652 4.064 1.651-4.064h.493l-2.563 6.185Z"/><path d="M76.263 60.803h-.596l.694-1.643-1.928-4.65h.599l.013.033 1.602 3.943 1.616-3.976h.608l-2.608 6.293Zm-.434-.107h.362l2.52-6.079h-.373l-1.692 4.152-1.688-4.152h-.367l1.885 4.544-.647 1.535ZM87.873 59.16h-.488l-.658-1.647h-3.276l-.658 1.647h-.488l2.562-6.293h.443l2.563 6.293Zm-2.815-5.675-1.437 3.598h2.932l-1.441-3.598-.027-.072-.027.072Z"/><path d="M87.953 59.213h-.604l-.658-1.647h-3.203l-.658 1.647h-.603l2.604-6.4h.514l2.608 6.4Zm-.534-.106h.373l-2.52-6.187H84.9l-2.514 6.187h.373l.658-1.647h3.35l.653 1.647Zm-.79-1.97h-3.09l1.543-3.875.077.204 1.47 3.67Zm-2.932-.107h2.776l-1.388-3.47-1.388 3.47ZM92.078 54.778c.323.209.58.505.739.854a2.852 2.852 0 0 1 .248 1.404h-3.814c.02.33.118.65.29.933a1.81 1.81 0 0 0 1.569.88 2.01 2.01 0 0 0 1.455-.591l.245.32a2.406 2.406 0 0 1-1.723.694 2.172 2.172 0 0 1-1.153-.32c-.346-.212-.63-.512-.821-.87a2.496 2.496 0 0 1-.3-1.212 2.673 2.673 0 0 1 .275-1.215c.173-.353.437-.653.766-.869.326-.213.709-.325 1.099-.32.397-.008.788.1 1.125.312Zm-1.94.334a1.7 1.7 0 0 0-.602.615c-.158.275-.253.58-.28.895h3.375a2.297 2.297 0 0 0-.258-.907 1.563 1.563 0 0 0-.573-.61 1.58 1.58 0 0 0-.834-.216 1.582 1.582 0 0 0-.828.223Z"/><path d="M91.087 59.325a2.233 2.233 0 0 1-1.18-.325 2.324 2.324 0 0 1-.84-.889 2.559 2.559 0 0 1-.307-1.238c-.005-.43.09-.854.28-1.24.177-.36.448-.668.784-.889a2.029 2.029 0 0 1 1.129-.328 2.1 2.1 0 0 1 1.154.317c.33.214.594.518.758.875a2.916 2.916 0 0 1 .253 1.434l-.007.046H89.31c.025.302.12.594.276.854a1.761 1.761 0 0 0 1.523.854c.268.002.535-.049.783-.15.237-.1.453-.245.634-.428l.043-.043.312.408-.034.034a2.484 2.484 0 0 1-.786.523c-.31.126-.64.189-.974.185Zm-.134-4.804a1.922 1.922 0 0 0-1.068.311c-.32.21-.579.503-.747.847-.181.371-.273.78-.267 1.192a2.46 2.46 0 0 0 .293 1.188c.186.349.463.641.8.847.34.207.729.314 1.125.31.32.004.637-.056.933-.177.267-.11.51-.27.72-.468l-.181-.237c-.182.172-.394.31-.626.405a2.11 2.11 0 0 1-.823.16 1.868 1.868 0 0 1-1.614-.905 2.09 2.09 0 0 1-.297-.957l-.004-.057h3.823c0-.032.004-.07.004-.117.006-.417-.08-.83-.253-1.21a1.968 1.968 0 0 0-.72-.831 1.995 1.995 0 0 0-1.098-.299v-.002Zm1.736 2.152h-3.491l.005-.058c.028-.323.126-.636.287-.917.149-.26.363-.48.62-.634.259-.153.554-.232.855-.23.302-.005.6.073.862.225.25.153.455.37.592.63.15.287.24.603.263.927l.007.057Zm-3.374-.107h3.257c-.027-.289-.11-.57-.245-.827a1.523 1.523 0 0 0-.554-.587 1.541 1.541 0 0 0-.807-.21 1.54 1.54 0 0 0-.8.214 1.656 1.656 0 0 0-.584.596 2.115 2.115 0 0 0-.267.817v-.003ZM95.08 59.075a2.61 2.61 0 0 1-.834-.492l.267-.332c.218.18.463.323.727.422.281.113.581.172.885.174.215.004.428-.035.628-.114.17-.066.318-.177.43-.32a.765.765 0 0 0 .154-.473.674.674 0 0 0-.152-.452 1.132 1.132 0 0 0-.44-.297 5.413 5.413 0 0 0-.777-.236c-.463-.11-.826-.27-1.088-.477a1 1 0 0 1-.394-.825 1.034 1.034 0 0 1 .188-.602c.14-.19.328-.338.546-.427.268-.112.556-.167.846-.16.298 0 .593.047.875.14.268.085.517.221.732.402l-.264.326a2.164 2.164 0 0 0-.616-.32 2.245 2.245 0 0 0-.736-.12 1.625 1.625 0 0 0-.595.098.855.855 0 0 0-.38.27.64.64 0 0 0-.13.397.64.64 0 0 0 .114.38c.099.126.227.227.374.293.228.107.468.189.714.244.291.071.577.164.854.278.219.09.413.23.566.41.147.173.22.397.22.669.002.245-.072.486-.214.687a1.42 1.42 0 0 1-.593.48c-.272.12-.566.18-.864.175-.357-.001-.71-.068-1.044-.198Z"/><path d="M96.13 59.325c-.365 0-.728-.067-1.07-.2a2.679 2.679 0 0 1-.85-.503l-.037-.034.336-.413.041.036c.213.176.454.315.712.412.275.11.568.169.865.17.208.004.415-.033.608-.11a.96.96 0 0 0 .407-.3.709.709 0 0 0 .144-.44.625.625 0 0 0-.14-.418 1.082 1.082 0 0 0-.42-.283 5.405 5.405 0 0 0-.769-.232c-.468-.112-.84-.276-1.108-.487a1.055 1.055 0 0 1-.414-.867 1.088 1.088 0 0 1 .197-.633c.145-.199.342-.354.569-.448.275-.114.57-.17.868-.164.302 0 .603.05.891.145.273.087.527.226.747.41l.04.034-.33.407-.041-.031a2.199 2.199 0 0 0-1.32-.432 1.592 1.592 0 0 0-.575.094.804.804 0 0 0-.357.254.583.583 0 0 0-.12.364.593.593 0 0 0 .107.349c.096.12.218.214.357.276.225.105.46.186.703.24.295.072.584.166.865.28.227.094.428.24.587.427.154.184.232.42.232.704.002.256-.075.507-.222.718a1.485 1.485 0 0 1-.615.499c-.28.122-.582.182-.887.176Zm-1.031-.297c.329.127.679.193 1.032.193.29.005.577-.053.842-.17.229-.1.426-.26.571-.463a1.13 1.13 0 0 0 .203-.657c0-.257-.07-.47-.207-.634a1.433 1.433 0 0 0-.546-.395 6.013 6.013 0 0 0-.85-.275 3.52 3.52 0 0 1-.724-.248 1.057 1.057 0 0 1-.396-.31.694.694 0 0 1-.124-.411.701.701 0 0 1 .14-.427.91.91 0 0 1 .404-.288c.197-.072.406-.107.615-.102a2.31 2.31 0 0 1 1.341.422l.199-.245a2.135 2.135 0 0 0-.674-.358 2.74 2.74 0 0 0-.858-.138 2.029 2.029 0 0 0-.824.154c-.21.086-.391.229-.525.412a.987.987 0 0 0-.178.572.94.94 0 0 0 .374.783c.255.202.614.358 1.067.467.267.06.53.139.785.237.176.067.334.174.46.313a.73.73 0 0 1 .166.486.815.815 0 0 1-.166.505c-.118.15-.273.266-.451.335a1.688 1.688 0 0 1-.65.118 2.46 2.46 0 0 1-.903-.178 2.673 2.673 0 0 1-.7-.395l-.203.25c.232.193.495.344.778.448l.002-.002ZM99.975 59.16h-.448v-4.18h-.841v-.416h.841V53.4l.448-.08v1.244h1.231v.416h-1.231v4.18Z"/><path d="M100.028 59.213h-.554v-4.18h-.842v-.523h.842v-1.155l.554-.1v1.255h1.231v.523h-1.231v4.18Zm-.448-.107h.341v-4.18h1.231v-.31h-1.23v-1.233l-.341.061v1.175h-.842v.309h.841v4.178ZM105.607 54.686c.272.152.492.383.631.663.148.29.223.642.223 1.054v2.757h-.447v-2.698c0-.505-.128-.893-.383-1.164-.255-.272-.608-.408-1.059-.408a1.612 1.612 0 0 0-.803.21 1.599 1.599 0 0 0-.821 1.424v2.636h-.444v-6.691h.444v2.904a1.7 1.7 0 0 1 .412-.467 2.08 2.08 0 0 1 1.293-.445c.332-.008.66.07.954.225Z"/><path d="M106.515 59.213h-.555v-2.752c0-.488-.123-.867-.368-1.127-.244-.26-.587-.39-1.02-.39a1.569 1.569 0 0 0-1.355.767 1.55 1.55 0 0 0-.213.813v2.69h-.551v-6.799h.551v2.782c.093-.124.202-.236.324-.333a2.134 2.134 0 0 1 1.327-.457c.341-.007.678.073.979.233a1.6 1.6 0 0 1 .653.684c.153.298.23.66.23 1.08l-.002 2.81Zm-.448-.107h.341v-2.703c0-.401-.073-.747-.218-1.03a1.491 1.491 0 0 0-.61-.64 1.883 1.883 0 0 0-.927-.22c-.232 0-.462.039-.681.116a1.99 1.99 0 0 0-.579.32c-.16.126-.295.28-.399.453l-.099.17v-3.048h-.337v6.584h.337v-2.583a1.65 1.65 0 0 1 .848-1.47c.253-.142.539-.217.829-.216.464 0 .834.142 1.098.423.264.282.397.685.397 1.201v2.643ZM111.222 54.778c.322.209.578.505.738.854a2.834 2.834 0 0 1 .249 1.404h-3.814c.019.33.118.65.289.933a1.812 1.812 0 0 0 1.569.88c.274.002.546-.05.8-.155a2 2 0 0 0 .651-.436l.247.32a2.41 2.41 0 0 1-.77.512 2.448 2.448 0 0 1-.953.181 2.172 2.172 0 0 1-1.153-.32c-.347-.21-.63-.51-.822-.868a2.503 2.503 0 0 1-.3-1.213 2.665 2.665 0 0 1 .276-1.215c.172-.353.437-.653.765-.869a1.97 1.97 0 0 1 1.099-.32c.399-.009.791.1 1.129.312Zm-1.941.334c-.25.15-.458.362-.602.615-.157.275-.253.58-.28.895h3.373a2.29 2.29 0 0 0-.257-.907 1.56 1.56 0 0 0-.573-.609 1.58 1.58 0 0 0-.835-.217 1.586 1.586 0 0 0-.826.223Z"/><path d="M110.23 59.325a2.231 2.231 0 0 1-1.18-.325 2.324 2.324 0 0 1-.841-.889 2.55 2.55 0 0 1-.306-1.238c-.006-.43.091-.854.281-1.24.177-.36.447-.668.784-.889a2.026 2.026 0 0 1 1.128-.328c.407-.008.808.102 1.154.317.331.214.594.517.758.875a2.91 2.91 0 0 1 .253 1.434l-.007.046h-3.802c.026.302.121.594.277.854.157.261.38.478.645.628.268.15.571.228.878.226.269.002.535-.049.783-.15.237-.1.453-.245.634-.428l.044-.043.311.408-.033.034a2.493 2.493 0 0 1-.787.523c-.309.126-.64.189-.974.185Zm-.134-4.804a1.92 1.92 0 0 0-1.068.311 2.14 2.14 0 0 0-.748.847 2.63 2.63 0 0 0-.27 1.192 2.45 2.45 0 0 0 .294 1.188c.187.349.463.641.801.847.338.207.728.314 1.125.31.319.004.636-.056.932-.177.266-.11.51-.27.719-.468l-.181-.237a2.061 2.061 0 0 1-1.448.565 1.866 1.866 0 0 1-1.615-.905 2.093 2.093 0 0 1-.296-.957l-.004-.057h3.823a2.805 2.805 0 0 0-.249-1.327 1.968 1.968 0 0 0-.719-.831 1.997 1.997 0 0 0-1.096-.299v-.002Zm1.736 2.152h-3.492l.006-.058c.028-.323.126-.636.287-.917.149-.26.363-.48.621-.634.258-.153.554-.232.854-.23.303-.005.601.073.862.225.251.153.456.37.593.63.15.287.24.603.263.927l.006.057Zm-3.373-.107h3.256c-.027-.289-.11-.57-.245-.827a1.517 1.517 0 0 0-.554-.587 1.54 1.54 0 0 0-.807-.21 1.541 1.541 0 0 0-.801.214 1.654 1.654 0 0 0-.583.596c-.144.251-.234.53-.266.817v-.003ZM114.527 59.16h-.448v-4.18h-.841v-.416h.841V53.4l.448-.08v1.244h1.231v.416h-1.231v4.18Z"/><path d="M114.58 59.213h-.554v-4.18h-.842v-.523h.842v-1.155l.554-.1v1.255h1.231v.523h-1.231v4.18Zm-.448-.107h.342v-4.18h1.23v-.31h-1.23v-1.233l-.342.061v1.175h-.841v.309h.841v4.178ZM117.031 53.209a.312.312 0 0 1-.096-.228.326.326 0 0 1 .335-.332.333.333 0 0 1 .317.204c.017.04.025.084.024.128a.3.3 0 0 1-.097.228.328.328 0 0 1-.244.094.327.327 0 0 1-.239-.094Zm.468 5.952h-.442v-4.596h.444l-.002 4.596Z"/><path d="M117.552 59.213h-.548V54.51h.55l-.002 4.703Zm-.443-.106h.337v-4.49h-.335l-.002 4.49Zm.16-5.752a.382.382 0 0 1-.361-.229.39.39 0 0 1-.001-.293.375.375 0 0 1 .083-.124.365.365 0 0 1 .279-.113.39.39 0 0 1 .282.112.358.358 0 0 1 .084.125.36.36 0 0 1 .028.148.362.362 0 0 1-.241.348.397.397 0 0 1-.151.026h-.002Zm0-.654a.27.27 0 0 0-.282.278.245.245 0 0 0 .081.19.272.272 0 0 0 .201.078.285.285 0 0 0 .207-.078.263.263 0 0 0 .081-.19.274.274 0 0 0-.175-.259.28.28 0 0 0-.111-.019h-.002ZM120.359 58.952c-.36-.21-.659-.51-.866-.87a2.375 2.375 0 0 1-.321-1.209 2.37 2.37 0 0 1 .321-1.213c.208-.361.506-.662.866-.873a2.307 2.307 0 0 1 1.195-.32 2.348 2.348 0 0 1 1.696.694l-.246.32a2.116 2.116 0 0 0-.653-.44 1.966 1.966 0 0 0-.779-.155 1.962 1.962 0 0 0-1.692.987 1.989 1.989 0 0 0-.267 1.008c-.003.351.089.697.267 1 .171.297.418.544.714.716.296.174.633.265.976.262a2.018 2.018 0 0 0 1.436-.582l.247.313a2.39 2.39 0 0 1-1.696.69 2.331 2.331 0 0 1-1.198-.328Z"/><path d="M121.559 59.325a2.389 2.389 0 0 1-1.228-.327 2.434 2.434 0 0 1-.885-.89 2.414 2.414 0 0 1-.327-1.235 2.43 2.43 0 0 1 .327-1.24c.212-.369.517-.676.885-.892a2.37 2.37 0 0 1 1.222-.33c.327-.002.651.061.954.186.291.122.557.3.78.524l.033.033-.311.403-.043-.042a2.074 2.074 0 0 0-.637-.43c-.24-.101-.498-.152-.758-.15a1.855 1.855 0 0 0-.951.256 1.936 1.936 0 0 0-.951 1.682 1.923 1.923 0 0 0 .953 1.67c.288.17.616.257.949.255a1.974 1.974 0 0 0 1.4-.567l.042-.041.313.397-.034.034a2.442 2.442 0 0 1-1.733.704Zm-.005-4.807a2.271 2.271 0 0 0-1.168.315 2.354 2.354 0 0 0-1.16 2.04c-.003.415.105.824.313 1.182.203.353.495.647.847.851.356.209.762.317 1.174.313a2.356 2.356 0 0 0 1.624-.64l-.18-.23a2.072 2.072 0 0 1-1.431.556 1.963 1.963 0 0 1-1.003-.267 2.026 2.026 0 0 1-1.006-1.762 2.038 2.038 0 0 1 1.004-1.774c.304-.18.652-.273 1.005-.271.275-.002.547.053.801.16.231.099.443.238.627.41l.181-.233a2.335 2.335 0 0 0-1.628-.65ZM125.099 59.075a2.609 2.609 0 0 1-.833-.492l.267-.332c.218.18.464.323.728.422.281.113.581.172.884.174.215.004.429-.035.629-.114.168-.067.316-.177.427-.32a.766.766 0 0 0 .155-.473.675.675 0 0 0-.152-.452 1.141 1.141 0 0 0-.441-.297 5.47 5.47 0 0 0-.777-.236c-.463-.11-.825-.27-1.088-.477a1.01 1.01 0 0 1-.394-.825 1.037 1.037 0 0 1 .188-.602c.139-.19.328-.338.546-.427.268-.112.556-.167.847-.16.297 0 .592.047.875.14.267.085.516.222.731.402l-.264.326a2.154 2.154 0 0 0-.615-.32 2.246 2.246 0 0 0-.736-.12 1.628 1.628 0 0 0-.596.098.854.854 0 0 0-.38.27.638.638 0 0 0-.13.397.644.644 0 0 0 .114.38 1 1 0 0 0 .374.293c.228.107.468.189.714.244.292.07.579.164.857.278.219.089.413.23.566.41.146.173.219.397.219.669.003.245-.072.486-.213.687a1.432 1.432 0 0 1-.593.48 2.05 2.05 0 0 1-.864.175c-.358-.001-.712-.068-1.045-.198Z"/><path d="M126.151 59.325a2.96 2.96 0 0 1-1.071-.2 2.67 2.67 0 0 1-.849-.503l-.038-.034.338-.415.042.037c.213.175.454.314.712.411.275.111.568.17.864.171a1.58 1.58 0 0 0 .608-.11.954.954 0 0 0 .408-.3.712.712 0 0 0 .144-.44.627.627 0 0 0-.14-.418 1.08 1.08 0 0 0-.42-.283 5.405 5.405 0 0 0-.769-.232c-.468-.112-.841-.276-1.108-.487a1.054 1.054 0 0 1-.415-.868 1.093 1.093 0 0 1 .198-.632c.144-.2.341-.355.569-.448.274-.115.57-.17.867-.164.303 0 .604.049.892.144.273.087.527.226.747.41l.039.034-.328.407-.042-.031a2.11 2.11 0 0 0-.601-.314 2.19 2.19 0 0 0-.718-.118 1.589 1.589 0 0 0-.576.095.802.802 0 0 0-.357.253.577.577 0 0 0-.119.364.588.588 0 0 0 .104.35c.095.119.217.214.356.276.225.105.461.185.703.24.295.071.584.165.865.28.227.094.428.24.587.427.154.184.232.42.232.704.002.256-.075.507-.222.717a1.485 1.485 0 0 1-.614.5c-.28.122-.583.183-.888.177Zm-1.033-.297c.33.127.68.193 1.033.193.289.005.576-.053.841-.17.229-.1.427-.26.572-.463.134-.192.205-.422.203-.656 0-.258-.07-.472-.207-.635a1.432 1.432 0 0 0-.546-.395 6.047 6.047 0 0 0-.849-.275 3.526 3.526 0 0 1-.725-.248 1.056 1.056 0 0 1-.396-.31.7.7 0 0 1-.124-.411.7.7 0 0 1 .141-.427.91.91 0 0 1 .403-.288 1.69 1.69 0 0 1 .615-.102 2.307 2.307 0 0 1 1.341.422l.199-.245a2.142 2.142 0 0 0-.674-.358 2.74 2.74 0 0 0-.858-.138 2.026 2.026 0 0 0-.824.154c-.21.086-.392.229-.525.412a.99.99 0 0 0-.178.572.944.944 0 0 0 .374.783c.255.202.614.358 1.067.467.267.06.529.139.785.237.176.067.334.174.461.313a.73.73 0 0 1 .165.486.813.813 0 0 1-.166.505 1.07 1.07 0 0 1-.451.335 1.691 1.691 0 0 1-.65.118 2.454 2.454 0 0 1-.903-.178 2.67 2.67 0 0 1-.701-.395l-.202.25c.232.192.496.343.779.447ZM33.298 27.937c0-6.548-5.397-8.796-11.144-8.796 5.547-1.4 8.297-4.648 8.297-7.946.15-5.947-4.45-8.446-12.195-8.446H6.912v3.299c1.698-.65 3.398-1.25 5.196-1.602-1.947 1.35-1.748 2.449-1.748 4.248v20.99c0 3.897.35 5.896-3.448 6.796v1.25h14.591c6.748.002 11.795-3.697 11.795-9.793ZM18.156 3.998a8.25 8.25 0 0 1 1.15-.1c.85 0 1.849.15 2.898.5 3.05 1 4.398 3.198 4.448 6.797.1 3.448-2 7.646-7.446 7.646h-4.498v-8.296c0-3.548-.3-5.947 3.448-6.546ZM12.51 36.033c2.15-.6 2.2-2.4 2.2-4.199V19.541h4.947c1.549 0 2.997.35 4.348 1.099 2.748 1.5 4.447 3.549 4.447 7.596 0 4.998-3.448 7.596-8.594 7.596l-7.348.2ZM64.983 33.983c2.048 3.599 5.097 4.548 8.445 4.548 4.248 0 8.646-2.299 8.646-7.346 0-4.498-3.998-6.197-7.797-7.794-3.498-1.4-6.797-2.699-6.797-5.797 0-2 1.85-3.799 4.899-3.799 4.347 0 6.246 2.699 6.696 7.146h1.249v-8.197h-3.298c1.1 1.1 1.548 1.9 1.8 3.448-.85-1.9-1.95-3.096-3.298-3.548-1.349-.452-2.5-.7-3.4-.7-6.746 0-8.546 4.448-8.546 7.246 0 5.048 4.549 6.648 8.546 8.197 3.096 1.199 5.897 2.498 5.897 5.246 0 2.7-2.948 3.95-5.498 3.95-3.95 0-6.897-2.948-7.696-7.095h-1.25v8.594h3.3c-.999-1.4-1.599-2.35-1.898-4.099ZM96.665 34.433c-1.75.748-3.55 1.25-5.445 1.602 2.598-.95 2.448-2.3 2.448-4.248V12.744h-7.746v3.298c1.699-.65 3.398-1.249 5.198-1.602-1.95 1.35-1.75 2.549-1.75 3.897v11.596c0 3.649.35 5.648-3.448 6.548v1.25h10.743v-3.298ZM91.22 7.047c1.448 0 2.698-1.2 2.698-2.699 0-1.449-1.25-2.699-2.698-2.699-1.5 0-2.7 1.25-2.7 2.7a2.687 2.687 0 0 0 2.7 2.698ZM110.309 34.433c-1.748.748-3.548 1.25-5.445 1.602 2.55-.801 2.498-2.4 2.498-4.248V.002h-7.794v3.449c1.399-.7 3.398-1.3 4.898-1.75-1.548 1.35-1.45 2.55-1.45 3.897v24.335c0 3.649.351 5.648-3.448 6.548v1.25h10.745l-.004-3.298Z"/><path d="M126.441 42.337c-26.318 3.409-61.391-.16-61.77-.2a328.837 328.837 0 0 0-15.608-.966l.774-2.99h.054l6.246-17.44c1.199-3.399 2.049-6.147 4.648-6.748v-1.25h-7.847v1.25h4.748c-.95.3-1.602.8-1.949 1.548-.7 1.5-1.25 3.15-1.8 4.598-1.399 4.149-2.748 8.296-4.297 12.545l-9.295-19.94h-5.547v3.298c1.7-.65 3.398-1.249 5.197-1.602-1.949 1.35-1.899 3.399-.15 7.147l7.358 15.752-.97 3.741C18.35 40.353 1.472 44.438.083 52.606c-.904 5.323 5.58 10.726 16.132 13.447 2.708.698 5.29 1.047 7.747 1.047 4.325 0 8.246-1.083 11.712-3.242 9.61-5.985 12.2-18.012 12.29-18.456l.39-1.502c4.862.172 10.214.501 16.057.988.355.036 35.743 3.638 62.383.189a1.382 1.382 0 0 0 1.194-1.548 1.385 1.385 0 0 0-1.547-1.192Zm-81.165 2.437c-.024.114-2.476 11.405-11.077 16.75-4.766 2.96-10.582 3.586-17.292 1.854-8.8-2.268-14.728-6.602-14.1-10.303.667-3.918 9.674-9.326 37.148-9.326 1.78 0 3.636.023 5.57.07l-.249.955Z"/></g><defs><clipPath id="a"><path fill="#fff" d="M0 0h128v67.1H0z"/></clipPath></defs></svg>