<svg xmlns="http://www.w3.org/2000/svg" width="235" height="230" fill="none"><g clip-path="url(#a)"><path fill="url(#b)" d="M99.412 97.396c7.761-1.517 13.096-12.236 10.105-19.981a6.73 6.73 0 0 0-6.629-4.793c-.97 0-2.021.142-2.91.222a4.636 4.636 0 0 1 1.859-5.177 4.048 4.048 0 0 1 1.435-.647 24.812 24.812 0 0 0 7.842-3.013c3.577-1.88 7.255-.486 10.65 1.132 6.063 2.892 8.832 7.604 8.367 14.986a26.305 26.305 0 0 0 3.638 15.531c.323.506.667.991 1.152 1.7.808-2.529 1.435-4.814 2.263-7.018 1.031-2.75 2.143-5.46 3.375-8.09a24.95 24.95 0 0 1 9.378-10.536c13.156-8.474 26.273-16.967 39.369-25.643a148.052 148.052 0 0 0 44.219-44.694c.336-.448.7-.873 1.091-1.274l.404.243c-.141.647-.242 1.294-.424 1.921-2.486 8.615-4.952 17.25-7.498 25.866a38.278 38.278 0 0 1-17.118 22.245 7344.484 7344.484 0 0 0-56.163 34.946c-4.183 2.63-8.306 5.36-12.368 8.272a626.94 626.94 0 0 0 78.373-45.22 11.203 11.203 0 0 1-.525 1.638c-4.689 9.242-9.236 18.565-14.147 27.686a18.762 18.762 0 0 1-14.147 9.485 15108.731 15108.731 0 0 0-49.332 9.181c-.548.131-1.088.293-1.617.486v.525c9.62-.95 19.24-1.739 28.84-2.892 9.599-1.152 19.037-2.67 28.981-3.68-.566.445-1.152.85-1.678 1.335-5.153 4.873-10.327 9.727-15.44 14.661a10.869 10.869 0 0 1-12.348 2.447c-9.418-3.478-18.917-6.734-28.294-10.111-.202 0-.425 0-.768.242 1.152.627 2.263 1.315 3.456 1.861a60.035 60.035 0 0 1 17.461 11.709 34.17 34.17 0 0 1 2.668 2.973 12.139 12.139 0 0 1 .869 15.592c-3.416 5.258-7.074 10.314-10.631 15.471-.869 1.234-1.778 2.447-2.93 4.045 3.577-20.365-.222-37.818-13.743-52.035l-.485.203c.227.585.483 1.159.768 1.718a106.398 106.398 0 0 1 9.276 25.077c1.819 8.251 1.011 16.017-4.042 22.792-.707.93-.404 1.557 0 2.346a61.676 61.676 0 0 0 15.582 18.201c2.89 2.285 5.962 4.287 8.973 6.431l1.355.971v.586a121.25 121.25 0 0 1-13.319-.809 13.593 13.593 0 0 1-9.296-7.604c-2.708-4.914-5.093-10.111-7.64-15.066-2.021 1.153-2.021 1.355-1.152 3.923a77.895 77.895 0 0 0 16.552 27.747c.202.222.485.343.607.768a13.43 13.43 0 0 1-9.802-2.326 17.812 17.812 0 0 1-6.386-9.403 70.448 70.448 0 0 1-3.618-17.392l-14.147 14.297a161.509 161.509 0 0 0 11.702-34.723c2.594-12.1 3.6-24.487 2.991-36.847l-16.815 60.812h-.586l-17.077-60.67a88.47 88.47 0 0 0 .323 18.362 184.835 184.835 0 0 0 2.769 18.343 155.87 155.87 0 0 0 4.992 17.756c2.021 5.784 4.506 11.325 6.891 17.21l-12.57-12.68c-.445 2.548-.728 4.833-1.233 7.058a40.796 40.796 0 0 1-5.113 14.156c-3.294 4.854-7.922 6.411-13.622 6.27.627-.749.99-1.254 1.415-1.699a77.781 77.781 0 0 0 15.622-26.007c.889-2.346.849-2.468-1.212-3.903-2.365 4.61-4.548 9.363-7.114 13.853a15.04 15.04 0 0 1-14.147 8.352c-2.81 0-5.639 0-8.61-.243 10.348-6.613 19.665-14.439 26.273-26.412a4.839 4.839 0 0 1-1.293-.768c-5.032-4.975-6.467-11.325-5.7-18.464a86.233 86.233 0 0 1 9.398-28.98l.97-2.022a2.776 2.776 0 0 0 0-.627 52.303 52.303 0 0 0-13.44 23.398 66.5 66.5 0 0 0-.585 27.747c-2.183-3.074-4.406-6.067-6.569-9.222a619.916 619.916 0 0 1-6.81-10.112c-3.476-5.319-3.335-10.112.566-15.046a43.721 43.721 0 0 1 13.924-11.669c3.395-1.84 6.831-3.6 10.105-5.683-.505.122-1.01.202-1.495.364-9.156 3.236-18.31 6.371-27.405 9.748a11.672 11.672 0 0 1-13.642-3.013c-4.91-5.056-10.104-9.708-15.298-14.541l-1.072-1.011c19.483 3.033 38.56 5.824 57.881 6.33-3.86-.789-7.72-1.598-11.6-2.326-13.48-2.548-27-4.934-40.42-7.644a20.204 20.204 0 0 1-14.45-11.81c-3.86-7.807-7.821-15.532-11.722-23.278a15.34 15.34 0 0 1-1.131-2.973 683.235 683.235 0 0 0 79.748 45.786c-.728-.506-1.435-1.052-2.183-1.517a57746.551 57746.551 0 0 1-67.945-42.833c-6.488-4.044-12.126-9.161-14.996-17.008-2.183-5.905-4.042-11.952-6.063-17.998C2.082 11.062 1.152 6.755.061 2.487a4.047 4.047 0 0 1 0-2.022c.303.364.646.708.909 1.092a144.711 144.711 0 0 0 43.128 43.784c12.53 8.271 25.1 16.482 37.772 24.49a35.145 35.145 0 0 1 15.077 20.001c.889 2.467 1.677 4.955 2.465 7.564Z"/><path fill="url(#c)" d="M79.526 209.231c2.283-1.537 4.284-2.852 6.265-4.207a66.993 66.993 0 0 0 19.32-20.223 16.87 16.87 0 0 0 1.334-16.664 14.017 14.017 0 0 1-.99-3.155c4.204 4.591 7.154 9.586 5.416 16.624a59.388 59.388 0 0 1-10.105 22.245 11.993 11.993 0 0 1-9.781 5.46c-3.699-.08-7.377-.08-11.46-.08Z"/><path fill="url(#d)" d="M129.201 164.739c-.808 2.124-1.535 3.863-2.021 5.643a15.841 15.841 0 0 0 1.557 13.266 65.861 65.861 0 0 0 20.412 21.76c1.839 1.274 3.678 2.488 5.517 3.721l-.101.567c-4.345-.182-8.69-.122-12.995-.647a12.326 12.326 0 0 1-8.205-5.562 56.836 56.836 0 0 1-10.105-24.066 17.196 17.196 0 0 1 5.941-14.682Z"/><path fill="url(#e)" d="M117.298 230a22.508 22.508 0 0 1-4.244-17.392c1.01-6.552 2.486-13.004 3.779-19.516.134-.356.296-.701.485-1.031.303 1.355.546 2.366.748 3.377l3.031 15.592a25.086 25.086 0 0 1-3.799 18.97Z"/><path fill="url(#f)" d="M94.218 218.21c10.267-9.141 14.471-22.367 19.584-34.987l.586.142a91.99 91.99 0 0 1-.991 11.386 117.746 117.746 0 0 1-4.304 15.147 14.159 14.159 0 0 1-5.117 6.479 14.139 14.139 0 0 1-7.858 2.52c-.566 0-1.112-.141-1.677-.202l-.223-.485Z"/><path fill="url(#g)" d="M120.451 182.94c4.203 13.57 10.105 25.866 19.886 35.674-3.921 1.295-10.266-1.031-12.995-5.217a40.463 40.463 0 0 1-4.042-8.899 57.47 57.47 0 0 1-2.95-19.556c-.041-.748.04-1.415.101-2.002Z"/></g><defs><linearGradient id="b" x1="0" x2="235.02" y1="93.27" y2="93.27" gradientUnits="userSpaceOnUse"><stop stop-color="#DBA034"/><stop offset=".26" stop-color="#F4D63E"/><stop offset=".36" stop-color="#DBA034"/><stop offset=".64" stop-color="#FEEE7F"/><stop offset="1" stop-color="#C7852A"/></linearGradient><linearGradient id="c" x1="95.451" x2="95.451" y1="177.015" y2="300.64" gradientUnits="userSpaceOnUse"><stop stop-color="#DBA034"/><stop offset=".26" stop-color="#F4D63E"/><stop offset=".36" stop-color="#DBA034"/><stop offset=".64" stop-color="#FEEE7F"/><stop offset="1" stop-color="#C7852A"/></linearGradient><linearGradient id="d" x1="138.821" x2="138.821" y1="177.015" y2="300.64" gradientUnits="userSpaceOnUse"><stop stop-color="#DBA034"/><stop offset=".26" stop-color="#F4D63E"/><stop offset=".36" stop-color="#DBA034"/><stop offset=".64" stop-color="#FEEE7F"/><stop offset="1" stop-color="#C7852A"/></linearGradient><linearGradient id="e" x1="117.177" x2="117.177" y1="177.015" y2="300.64" gradientUnits="userSpaceOnUse"><stop stop-color="#DBA034"/><stop offset=".26" stop-color="#F4D63E"/><stop offset=".36" stop-color="#DBA034"/><stop offset=".64" stop-color="#FEEE7F"/><stop offset="1" stop-color="#C7852A"/></linearGradient><linearGradient id="f" x1="104.303" x2="104.303" y1="177.015" y2="300.64" gradientUnits="userSpaceOnUse"><stop stop-color="#DBA034"/><stop offset=".26" stop-color="#F4D63E"/><stop offset=".36" stop-color="#DBA034"/><stop offset=".64" stop-color="#FEEE7F"/><stop offset="1" stop-color="#C7852A"/></linearGradient><linearGradient id="g" x1="130.313" x2="130.313" y1="177.015" y2="300.64" gradientUnits="userSpaceOnUse"><stop stop-color="#DBA034"/><stop offset=".26" stop-color="#F4D63E"/><stop offset=".36" stop-color="#DBA034"/><stop offset=".64" stop-color="#FEEE7F"/><stop offset="1" stop-color="#C7852A"/></linearGradient><clipPath id="a"><path fill="#fff" d="M0 0h235v230H0z"/></clipPath></defs></svg>