<svg width="235" height="230" viewBox="0 0 235 230" fill="none" xmlns="http://www.w3.org/2000/svg">
<g clip-path="url(#clip0_1_29)">
<path d="M99.4122 97.3956C107.173 95.8788 112.508 85.1605 109.517 77.4149C109.092 75.9984 108.212 74.7616 107.014 73.8953C105.816 73.029 104.366 72.5816 102.888 72.622C101.918 72.622 100.867 72.7636 99.978 72.8444C99.6942 71.896 99.7216 70.8814 100.056 69.9497C100.391 69.0179 101.015 68.218 101.837 67.6673C102.269 67.3596 102.756 67.1397 103.272 67.0201C106.038 66.4688 108.69 65.4498 111.114 64.0068C114.691 62.1261 118.369 63.5215 121.764 65.1394C127.827 68.0313 130.596 72.7433 130.131 80.1248C129.707 85.5541 130.978 90.9812 133.769 95.6564C134.092 96.162 134.436 96.6473 134.921 97.3551C135.729 94.8272 136.356 92.542 137.184 90.3376C138.215 87.5873 139.327 84.8773 140.559 82.2483C142.607 77.9067 145.863 74.2483 149.937 71.7119C163.093 63.2384 176.21 54.7446 189.306 46.0687C207.073 34.5107 222.153 19.2692 233.525 1.37518C233.861 0.927381 234.225 0.501802 234.616 0.101105L235.02 0.343785C234.879 0.990931 234.778 1.63808 234.596 2.265C232.11 10.8801 229.644 19.5155 227.098 28.1306C224.413 37.4476 218.296 45.398 209.98 50.3763C191.266 61.9036 172.545 73.5523 153.817 85.3222C149.634 87.9513 145.511 90.6814 141.449 93.5936C168.627 80.4284 194.82 65.316 219.822 48.3742C219.689 48.9328 219.514 49.4805 219.297 50.0123C214.608 59.2544 210.061 68.5773 205.15 77.698C203.707 80.2838 201.673 82.4912 199.214 84.1397C196.756 85.7882 193.942 86.831 191.003 87.1828C174.552 90.2163 158.108 93.2768 141.671 96.3642C141.123 96.4952 140.583 96.6573 140.054 96.8495V97.3753C149.674 96.4249 159.294 95.6361 168.894 94.4834C178.493 93.3307 187.931 91.8139 197.875 90.8028C197.309 91.2477 196.723 91.6521 196.197 92.1375C191.044 97.0113 185.87 101.865 180.757 106.799C179.206 108.438 177.185 109.555 174.973 109.993C172.76 110.431 170.466 110.17 168.409 109.246C158.991 105.768 149.492 102.512 140.115 99.1348C139.913 99.1348 139.69 99.1348 139.347 99.3775C140.499 100.004 141.61 100.692 142.803 101.238C149.266 104.083 155.177 108.047 160.264 112.947C161.211 113.885 162.101 114.878 162.932 115.92C164.888 118.001 166.047 120.706 166.206 123.558C166.365 126.41 165.513 129.227 163.801 131.512C160.385 136.77 156.727 141.826 153.17 146.983C152.301 148.217 151.392 149.43 150.24 151.028C153.817 130.663 150.018 113.21 136.497 98.9932L136.012 99.1955C136.239 99.7811 136.495 100.355 136.78 100.914C140.914 108.85 144.031 117.275 146.056 125.991C147.875 134.242 147.067 142.008 142.014 148.783C141.307 149.713 141.61 150.34 142.014 151.129C145.969 158.157 151.263 164.341 157.596 169.33C160.486 171.615 163.558 173.617 166.569 175.761L167.924 176.732V177.318C163.473 177.293 159.027 177.023 154.605 176.509C152.577 176.038 150.685 175.108 149.073 173.789C147.461 172.471 146.173 170.8 145.309 168.905C142.601 163.991 140.216 158.794 137.669 153.839C135.648 154.992 135.648 155.194 136.517 157.762C140.035 168.067 145.674 177.52 153.069 185.509C153.271 185.731 153.554 185.852 153.676 186.277C150.231 186.803 146.716 185.969 143.874 183.951C140.776 181.599 138.533 178.296 137.488 174.548C135.553 168.926 134.337 163.082 133.87 157.156L119.723 171.453C124.928 160.361 128.854 148.711 131.425 136.73C134.019 124.63 135.025 112.243 134.416 99.883L117.601 160.695H117.015L99.9376 100.025C99.4081 106.14 99.5165 112.294 100.261 118.387C100.876 124.544 101.801 130.666 103.03 136.73C104.342 142.742 106.009 148.671 108.022 154.486C110.043 160.27 112.528 165.811 114.913 171.696L102.343 159.016C101.898 161.564 101.615 163.849 101.11 166.074C100.298 171.069 98.5644 175.87 95.9967 180.23C92.7025 185.084 88.0745 186.641 82.3753 186.5C83.0018 185.751 83.3656 185.246 83.79 184.801C90.6536 177.242 95.962 168.405 99.4122 158.794C100.301 156.448 100.261 156.326 98.1996 154.891C95.835 159.501 93.6524 164.254 91.0857 168.744C89.7912 171.359 87.7645 173.54 85.2527 175.023C82.7409 176.506 79.8523 177.226 76.9388 177.096C74.1297 177.096 71.3003 177.096 68.3294 176.853C78.6769 170.24 87.9936 162.414 94.6022 150.441C94.1338 150.254 93.6974 149.995 93.3088 149.673C88.2765 144.698 86.8417 138.348 87.6096 131.209C88.9976 121.067 92.1798 111.254 97.0072 102.229L97.9773 100.207C98.001 99.9983 98.001 99.788 97.9773 99.5797C91.5288 106.068 86.8947 114.136 84.5377 122.978C82.3931 132.083 82.1934 141.537 83.9517 150.725C81.769 147.651 79.5459 144.658 77.3835 141.503C75.221 138.348 72.816 134.809 70.5727 131.391C67.0966 126.072 67.2381 121.279 71.1386 116.345C74.9125 111.523 79.6564 107.547 85.0632 104.676C88.4584 102.836 91.8941 101.076 95.1681 98.9932C94.6629 99.1146 94.1576 99.1954 93.6726 99.3572C84.5175 102.593 75.3625 105.728 66.2681 109.105C63.9733 110.141 61.4056 110.407 58.9475 109.864C56.4893 109.321 54.2722 107.998 52.6264 106.092C47.7154 101.036 42.5215 96.3844 37.3276 91.551L36.2564 90.5399C55.7387 93.5734 74.8168 96.3642 94.1374 96.8698C90.2773 96.0811 86.4172 95.2721 82.5369 94.5441C69.057 91.9959 55.5366 89.6096 42.1173 86.8997C38.9376 86.2378 35.9641 84.8188 33.4488 82.7629C30.9334 80.707 28.9502 78.0748 27.6672 75.0892C23.8072 67.283 19.846 59.5577 15.9455 51.8122C15.4663 50.8632 15.087 49.8669 14.8138 48.8393C40.3391 65.8754 66.9821 81.1719 94.5618 94.625C93.8343 94.1194 93.1269 93.5734 92.3792 93.1082C69.7172 78.844 47.0687 64.5664 24.4337 50.2752C17.9463 46.2305 12.3078 41.114 9.43796 33.2674C7.2553 27.3622 5.396 21.3154 3.37501 15.2686C2.08158 11.0622 1.15193 6.75458 0.0606003 2.48746C-0.110532 1.82422 -0.110532 1.12836 0.0606003 0.465125C0.363748 0.829145 0.707309 1.17294 0.970037 1.55719C12.0474 19.0733 26.755 34.0045 44.0979 45.3407C56.628 53.6121 69.1985 61.8227 81.87 69.8312C89.18 74.4187 94.5467 81.5383 96.9466 89.832C97.8358 92.2993 98.624 94.7868 99.4122 97.3956Z" fill="url(#paint0_linear_1_29)"/>
<path d="M79.5257 209.231C81.8094 207.694 83.8102 206.379 85.7907 205.024C93.581 199.718 100.165 192.827 105.111 184.801C106.762 182.379 107.753 179.568 107.987 176.646C108.221 173.724 107.689 170.791 106.445 168.137C105.992 167.128 105.659 166.069 105.455 164.982C109.659 169.573 112.609 174.568 110.871 181.606C109.081 189.642 105.639 197.217 100.766 203.851C99.7022 205.488 98.2553 206.841 96.5509 207.793C94.8464 208.744 92.9358 209.266 90.9847 209.311C87.2863 209.231 83.6081 209.231 79.5257 209.231Z" fill="url(#paint1_linear_1_29)"/>
<path d="M129.201 164.739C128.393 166.863 127.666 168.602 127.18 170.382C126.458 172.573 126.223 174.895 126.492 177.187C126.761 179.479 127.527 181.684 128.737 183.648C133.788 192.368 140.771 199.813 149.149 205.408C150.988 206.682 152.827 207.896 154.666 209.129L154.565 209.696C150.22 209.514 145.875 209.574 141.57 209.049C139.892 208.74 138.297 208.087 136.884 207.129C135.472 206.172 134.273 204.932 133.365 203.487C128.176 196.359 124.716 188.119 123.26 179.421C123.001 176.677 123.406 173.91 124.44 171.355C125.474 168.799 127.107 166.53 129.201 164.739Z" fill="url(#paint2_linear_1_29)"/>
<path d="M117.298 230C115.439 227.546 114.103 224.736 113.373 221.744C112.643 218.753 112.535 215.643 113.054 212.608C114.064 206.056 115.54 199.604 116.833 193.092C116.967 192.736 117.129 192.391 117.318 192.061C117.621 193.416 117.864 194.427 118.066 195.438C119.076 200.636 120.087 205.833 121.097 211.03C121.751 214.287 121.752 217.64 121.099 220.897C120.447 224.153 119.155 227.247 117.298 230Z" fill="url(#paint3_linear_1_29)"/>
<path d="M94.2183 218.21C104.485 209.069 108.689 195.843 113.802 183.223L114.388 183.365C114.294 187.177 113.963 190.98 113.397 194.751C112.302 199.89 110.864 204.951 109.093 209.898C108.069 212.518 106.287 214.774 103.976 216.377C101.665 217.98 98.9296 218.857 96.118 218.897C95.5521 218.897 95.0064 218.756 94.4406 218.695L94.2183 218.21Z" fill="url(#paint4_linear_1_29)"/>
<path d="M120.451 182.94C124.654 196.51 130.556 208.806 140.337 218.614C136.416 219.909 130.071 217.583 127.342 213.397C125.64 210.605 124.283 207.617 123.3 204.498C121.194 198.199 120.196 191.583 120.35 184.942C120.309 184.194 120.39 183.527 120.451 182.94Z" fill="url(#paint5_linear_1_29)"/>
</g>
<defs>
<linearGradient id="paint0_linear_1_29" x1="-2.92258e-05" y1="93.27" x2="235.02" y2="93.27" gradientUnits="userSpaceOnUse">
<stop stop-color="#DBA034"/>
<stop offset="0.26" stop-color="#F4D63E"/>
<stop offset="0.36" stop-color="#DBA034"/>
<stop offset="0.64" stop-color="#FEEE7F"/>
<stop offset="1" stop-color="#C7852A"/>
</linearGradient>
<linearGradient id="paint1_linear_1_29" x1="95.4511" y1="177.015" x2="95.4511" y2="300.64" gradientUnits="userSpaceOnUse">
<stop stop-color="#DBA034"/>
<stop offset="0.26" stop-color="#F4D63E"/>
<stop offset="0.36" stop-color="#DBA034"/>
<stop offset="0.64" stop-color="#FEEE7F"/>
<stop offset="1" stop-color="#C7852A"/>
</linearGradient>
<linearGradient id="paint2_linear_1_29" x1="138.821" y1="177.015" x2="138.821" y2="300.64" gradientUnits="userSpaceOnUse">
<stop stop-color="#DBA034"/>
<stop offset="0.26" stop-color="#F4D63E"/>
<stop offset="0.36" stop-color="#DBA034"/>
<stop offset="0.64" stop-color="#FEEE7F"/>
<stop offset="1" stop-color="#C7852A"/>
</linearGradient>
<linearGradient id="paint3_linear_1_29" x1="117.177" y1="177.015" x2="117.177" y2="300.64" gradientUnits="userSpaceOnUse">
<stop stop-color="#DBA034"/>
<stop offset="0.26" stop-color="#F4D63E"/>
<stop offset="0.36" stop-color="#DBA034"/>
<stop offset="0.64" stop-color="#FEEE7F"/>
<stop offset="1" stop-color="#C7852A"/>
</linearGradient>
<linearGradient id="paint4_linear_1_29" x1="104.303" y1="177.015" x2="104.303" y2="300.64" gradientUnits="userSpaceOnUse">
<stop stop-color="#DBA034"/>
<stop offset="0.26" stop-color="#F4D63E"/>
<stop offset="0.36" stop-color="#DBA034"/>
<stop offset="0.64" stop-color="#FEEE7F"/>
<stop offset="1" stop-color="#C7852A"/>
</linearGradient>
<linearGradient id="paint5_linear_1_29" x1="130.313" y1="177.015" x2="130.313" y2="300.64" gradientUnits="userSpaceOnUse">
<stop stop-color="#DBA034"/>
<stop offset="0.26" stop-color="#F4D63E"/>
<stop offset="0.36" stop-color="#DBA034"/>
<stop offset="0.64" stop-color="#FEEE7F"/>
<stop offset="1" stop-color="#C7852A"/>
</linearGradient>
<clipPath id="clip0_1_29">
<rect width="235" height="230" fill="white"/>
</clipPath>
</defs>
</svg>
