<svg width="32" height="32" viewBox="0 0 32 32" fill="none" xmlns="http://www.w3.org/2000/svg">
<path fill-rule="evenodd" clip-rule="evenodd" d="M16 3C16 3 18.6442 3 21.0605 4.02201C21.0605 4.02201 23.3936 5.00884 25.1924 6.80761C25.1924 6.80761 26.9912 8.60638 27.978 10.9395C27.978 10.9395 29 13.3558 29 16C29 16 29 18.6442 27.978 21.0605C27.978 21.0605 26.9912 23.3936 25.1924 25.1924C25.1924 25.1924 23.3936 26.9912 21.0605 27.978C21.0605 27.978 18.6442 29 16 29C16 29 13.3558 29 10.9395 27.978C10.9395 27.978 8.60638 26.9912 6.80761 25.1924C6.80761 25.1924 5.00884 23.3936 4.02202 21.0605C4.02202 21.0605 3 18.6442 3 16C3 16 3 13.3558 4.02202 10.9395C4.02202 10.9395 5.00885 8.60638 6.80761 6.80761C6.80761 6.80761 8.60638 5.00884 10.9395 4.02201C10.9395 4.02201 13.3558 3 16 3ZM16 5C16 5 13.7614 5 11.7186 5.86402C11.7186 5.86402 9.74476 6.69889 8.22183 8.22182C8.22183 8.22182 6.6989 9.74476 5.86402 11.7186C5.86402 11.7186 5 13.7614 5 16C5 16 5 18.2386 5.86402 20.2814C5.86402 20.2814 6.69889 22.2552 8.22183 23.7782C8.22183 23.7782 9.74476 25.3011 11.7186 26.136C11.7186 26.136 13.7614 27 16 27C16 27 18.2386 27 20.2814 26.136C20.2814 26.136 22.2552 25.3011 23.7782 23.7782C23.7782 23.7782 25.3011 22.2552 26.136 20.2814C26.136 20.2814 27 18.2386 27 16C27 16 27 13.7614 26.136 11.7186C26.136 11.7186 25.3011 9.74476 23.7782 8.22183C23.7782 8.22183 22.2552 6.69889 20.2814 5.86402C20.2814 5.86402 18.2386 5 16 5Z" fill="#E0E0E0"/>
<path d="M15 14V28C15 28.5523 15.4477 29 16 29C16.5523 29 17 28.5523 17 28V14C16.9984 13.5983 17.1497 13.2308 17.1497 13.2308C17.3011 12.8632 17.5821 12.5821 17.5821 12.5821C17.8632 12.301 18.2308 12.1497 18.2308 12.1497C18.5983 11.9984 18.9958 12 18.9958 12L21 12C21.5523 12 22 11.5523 22 11C22 10.4477 21.5523 10 21 10L19.0042 10C18.2067 9.99669 17.4693 10.3003 17.4693 10.3003C16.7318 10.604 16.1679 11.1679 16.1679 11.1679C15.604 11.7318 15.3003 12.4693 15.3003 12.4693C14.9967 13.2067 15 14 15 14Z" fill="#E0E0E0"/>
<path d="M12 19H20C20.5523 19 21 18.5523 21 18C21 17.4477 20.5523 17 20 17H12C11.4477 17 11 17.4477 11 18C11 18.5523 11.4477 19 12 19Z" fill="#E0E0E0"/>
</svg>
