<svg width="32" height="32" viewBox="0 0 32 32" fill="none" xmlns="http://www.w3.org/2000/svg">
<path fill-rule="evenodd" clip-rule="evenodd" d="M3.5 5.5C3.5 5.5 3.5 4.67157 4.08579 4.08579C4.08579 4.08579 4.67157 3.5 5.5 3.5H26.5C26.5 3.5 27.3284 3.5 27.9142 4.08579C27.9142 4.08579 28.5 4.67157 28.5 5.5V26.5C28.5 26.5 28.5 27.3284 27.9142 27.9142C27.9142 27.9142 27.3284 28.5 26.5 28.5H5.5C5.5 28.5 4.67157 28.5 4.08579 27.9142C4.08579 27.9142 3.5 27.3284 3.5 26.5V5.5ZM5.5 5.5V26.5H26.5V5.5H5.5Z" fill="#E0E0E0"/>
<path d="M14 14V22C14 22.5523 14.4477 23 15 23C15.5523 23 16 22.5523 16 22V14C16 13.4477 15.5523 13 15 13C14.4477 13 14 13.4477 14 14Z" fill="#E0E0E0"/>
<path d="M10 14V22C10 22.5523 10.4477 23 11 23C11.5523 23 12 22.5523 12 22V14C12 13.4477 11.5523 13 11 13C10.4477 13 10 13.4477 10 14Z" fill="#E0E0E0"/>
<path d="M21 17.5V22C21 22.5523 21.4477 23 22 23C22.5523 23 23 22.5523 23 22V17.5C23 15.636 21.682 14.318 21.682 14.318C20.364 13 18.5 13 18.5 13C16.636 13 15.318 14.318 15.318 14.318C14 15.636 14 17.5 14 17.5C14 18.0523 14.4477 18.5 15 18.5C15.5523 18.5 16 18.0523 16 17.5C16 16.4645 16.7322 15.7322 16.7322 15.7322C17.4645 15 18.5 15 18.5 15C19.5355 15 20.2678 15.7322 20.2678 15.7322C21 16.4645 21 17.5 21 17.5Z" fill="#E0E0E0"/>
<path d="M12.5 10C12.5 10.8284 11.8284 11.5 11 11.5C10.1716 11.5 9.5 10.8284 9.5 10C9.5 9.17163 10.1716 8.5 11 8.5C11.8284 8.5 12.5 9.17163 12.5 10Z" fill="#E0E0E0"/>
</svg>
