<svg width="24" height="24" viewBox="0 0 24 24" fill="none" xmlns="http://www.w3.org/2000/svg">
<path d="M15.1388 3.02568C17.2741 3.59893 18.8375 5.16234 18.8375 5.16234C20.401 6.72583 20.9742 8.86131 20.9742 8.86131C20.9908 8.92286 20.9995 8.98668 21 9.05041L21 9.05613C21 9.39547 20.7721 9.69254 20.4444 9.78049C20.3855 9.79631 20.3248 9.80488 20.2638 9.806L20.25 9.80613C20.1184 9.80613 19.9892 9.77153 19.8753 9.7058C19.7029 9.60641 19.5772 9.44265 19.5256 9.25053L19.5253 9.24937C19.0561 7.50224 17.7769 6.223 17.7769 6.223C16.4972 4.94333 14.7493 4.47424 14.7493 4.47424C14.4216 4.38629 14.1937 4.08922 14.1937 3.74988C14.1937 3.68615 14.2019 3.62268 14.2179 3.56101L14.2194 3.55547C14.2672 3.37734 14.379 3.22306 14.5333 3.12213C14.545 3.11449 14.5569 3.10718 14.569 3.10021C14.683 3.03448 14.8122 2.99988 14.9437 2.99988C15.0075 2.99988 15.0709 3.008 15.1326 3.02405L15.1388 3.02568Z" fill="#333333"/>
<path d="M16.6282 10.0264C16.7155 10.3551 17.0131 10.5843 17.3531 10.5843L17.3569 10.5843C17.4206 10.584 17.4841 10.5755 17.5456 10.5592C17.8743 10.4719 18.1031 10.1744 18.1031 9.83429L18.1031 9.83053C18.1028 9.7668 18.0944 9.70337 18.078 9.64178C17.7159 8.27898 16.7186 7.28128 16.7186 7.28128C15.7213 6.28395 14.3581 5.92192 14.3581 5.92192C14.2953 5.90524 14.2306 5.89679 14.1656 5.89679L14.1513 5.89693C13.8166 5.90334 13.5267 6.13076 13.4408 6.45428C13.4241 6.51709 13.4156 6.5818 13.4156 6.64679C13.4156 6.65522 13.4158 6.66366 13.4161 6.67209C13.4202 6.79566 13.4549 6.91628 13.5169 7.02322C13.6168 7.19527 13.7809 7.3206 13.9731 7.37166C14.9457 7.63014 15.658 8.34194 15.658 8.34194C16.3697 9.05367 16.6282 10.0264 16.6282 10.0264Z" fill="#333333"/>
<path fill-rule="evenodd" clip-rule="evenodd" d="M10.9111 8.99936L9.3484 11.3761C9.3484 11.3761 10.4263 13.5995 12.6491 14.6689L12.6521 14.6668L14.9915 13.1041C14.9915 13.1041 15.3092 12.8886 15.6915 12.8534C15.6915 12.8534 16.0738 12.8182 16.421 12.9701L20.8007 14.8512C20.8007 14.8512 21.266 15.0448 21.5183 15.4811C21.5183 15.4811 21.7706 15.9174 21.7064 16.417C21.7064 16.417 21.4547 18.3818 19.9678 19.6906C19.9678 19.6906 18.481 20.9994 16.5 20.9998C16.5 20.9998 13.8147 20.9998 11.3338 19.9722C11.3338 19.9722 8.85286 18.9446 6.95406 17.0458C6.95406 17.0458 5.05525 15.147 4.02763 12.6661C4.02763 12.6661 3 10.1851 3 7.49966C3 7.49966 3.00045 5.51883 4.30925 4.03198C4.30925 4.03198 5.61805 2.54514 7.58257 2.29344C7.58257 2.29344 8.08245 2.22923 8.51873 2.48153C8.51873 2.48153 8.95501 2.73384 9.14561 3.19189L11.0285 7.58542C11.0285 7.58542 11.1778 7.9291 11.1479 8.3026C11.1479 8.3026 11.1181 8.6761 10.9111 8.99936ZM7.99536 12.0236L7.99416 12.0211C7.99416 12.0211 7.82652 11.6692 7.85147 11.2801C7.85147 11.2801 7.8765 10.8896 8.08911 10.5611L9.65268 8.18292L7.76689 3.78277C7.76689 3.78277 6.36768 3.96372 5.43518 5.02309C5.43518 5.02309 4.50032 6.08512 4.5 7.5C4.5 7.5 4.5 9.88678 5.41345 12.092C5.41345 12.092 6.32689 14.2973 8.01472 15.9851C8.01472 15.9851 9.70255 17.6729 11.9078 18.5864C11.9078 18.5864 14.1131 19.4998 16.5 19.4998C16.5 19.4998 17.9147 19.4995 18.9767 18.5646C18.9767 18.5646 20.0362 17.632 20.2177 16.2332L15.8292 14.3484L13.4854 15.9141C13.4854 15.9141 13.159 16.1344 12.7627 16.1645C12.7627 16.1645 12.3664 16.1946 12.0072 16.0246C12.0072 16.0246 9.30279 14.7235 7.99685 12.0267L7.99629 12.0255L7.99595 12.0248L7.99536 12.0236Z" fill="#333333"/>
</svg>
